<?xml version="1.0" encoding="utf-8"?>
<!-- Generator: Adobe Illustrator 27.0.1, SVG Export Plug-In . SVG Version: 6.00 Build 0)  -->
<svg version="1.1" id="Layer_1" xmlns="http://www.w3.org/2000/svg" xmlns:xlink="http://www.w3.org/1999/xlink" x="0px" y="0px"
	 viewBox="0 0 715.4 126.2" style="enable-background:new 0 0 715.4 126.2;" xml:space="preserve">
<style type="text/css">
	.st0{fill:none;}
</style>
<g>
	<path class="st0" d="M427.3,82.8c0-0.2-0.1-0.3-0.1-0.5c-0.2-0.4-0.5-0.7-1-0.7c-0.5,0-1,0.5-1,1.2c0,0.7,0.5,1.2,1,1.2
		C426.8,84,427.3,83.5,427.3,82.8z"/>
	<path class="st0" d="M422.2,82.8c-1,0.3-3.4,2.4-3.4,2.4c2.6,0.1,5,0,7-0.1c-0.9-0.2-1.7-1.1-1.7-2.2c0-1.1,0.7-2,1.6-2.2v-1.4
		c-0.6-0.1-1-0.5-1.1-1.1l0,0c-1,0.3-1.9,0.3-1.9,0.3c-0.2,0.5,0.2,0.7,0.2,0.7c2.1,1.5,0.7,2.9,0.7,2.9
		C422.7,82.8,422.2,82.8,422.2,82.8z"/>
	<path class="st0" d="M331.7,84.8c1.2,0.2,2.4,0.2,3.6,0c0,0-1-0.3-2-0.7c-0.8-0.3-1.7-0.6-2-1c0,0-0.3-1.8,0.3-2.8
		c0,0,0.9-0.2,2-1.1c0.3-0.2,0.6-0.5,0.9-0.8c0,0-3.5-0.3-5.4-0.9v0h-0.1c-0.5-0.2-1-0.4-1.2-0.6c-0.1,0.2-0.2,0.4-0.3,0.6
		c-0.2,0.5-0.7,1.2-1.2,1.8l-0.2,1.2c0,0,3.8,0.3,4.2,2.9l-0.5,1C330,84.4,330.7,84.7,331.7,84.8z"/>
	<path class="st0" d="M60.2,39.7L60.2,39.7l-0.1-15.3c0.7-2.6-2.9-1.9-2.9-1.9l-11.7-0.2l0,15.7C52.2,49,59.6,40.5,60.2,39.7z"/>
	<path class="st0" d="M60.3,51.2l-0.1-9.2c-2.6,2.5-8.8,6.6-14.7-1.1l0,10.4C52,44.8,57.9,48.9,60.3,51.2z"/>
	<path class="st0" d="M60.2,53.6c0,0-6.9-9.1-14.6,0.3l0,17.5c8.6,0.9,14.9,3.9,14.9,3.9l-0.1-21.9L60.2,53.6z"/>
	<path class="st0" d="M362.8,68.2l-1.7,0.2l1.5,1.1v0l1.6,1.2c-0.2-1.8,0.1-4.7,0.1-4.7C363.1,66.8,362.8,68.2,362.8,68.2z"/>
	<path class="st0" d="M366.9,82l0.1,1.3c0.3,0,0.5,0.1,0.8,0.2c0.4,0.2,0.7,0.5,0.7,0.5c0.6-0.6,0.3-1.6,0.3-1.6l-1.5-1.6
		c0,0.3-0.1,0.5-0.1,0.7v0C367.1,81.8,366.9,82,366.9,82z"/>
	<path class="st0" d="M103.4,49.5c-2,7.7,1.8,14.7,1.8,14.7c0,0,0-0.1-0.1-0.1c0,0,0,0,0,0v0c0,0,0,0,0,0c0,0.1,0.1,0.1,0.1,0.1
		c3.6,7.2,12.9,11.8,12.9,11.8c3.6,1.7,5.1-0.8,5.1-0.8l0.2-29.2l-11.3-7.4C103.7,42.3,103.4,49.5,103.4,49.5z"/>
	<path class="st0" d="M432.9,81.1c-2.5-0.3-3.8-2.3-4.4-3.4h-1.3v0c0,0.1,0,0.2,0,0.3c0,0.5-0.3,0.9-0.8,1.1v1.5
		c0.6,0.1,1.1,0.3,1.4,0.8c0.3,0.4,0.5,0.9,0.5,1.5c0,1.1-0.6,1.9-1.5,2.2c2.4-0.2,4-0.4,4-0.4c-2.4-0.5-1-1.9-1-1.9
		C430.8,81.8,432.9,81.1,432.9,81.1z"/>
	<path class="st0" d="M363.8,78c0-0.6,0.3-1.3,1.2-1.4c0,0-2.1-0.4-3.9-1.1c-1.2-0.4-2.4-0.9-2.8-1.5l-0.9,0.3l-0.7,0.3v0.3
		c0,0,1.9,0.3,2.9,1.1v-0.4c0,0,1.8,0.3,2.5,2C362.8,77.5,363.4,77.6,363.8,78z"/>
	<path class="st0" d="M357.6,87.5l0.1,1.5l1.3-1.4c-0.2,0-0.4-0.1-0.5-0.3c-0.5-0.4-0.8-1-0.8-1L357.6,87.5L357.6,87.5z"/>
	<path class="st0" d="M354.4,84l0.7-0.2c0,0-0.7-0.6-0.8-1c0,0,0-0.8-0.9-1.5l0.1,0.7v1l0.3,0.3v0.8L354.4,84z"/>
	<polygon class="st0" points="425.9,85.1 425.9,85.1 425.9,85.1 	"/>
	<path class="st0" d="M353.3,78.6c0,0-0.4-0.4-0.7-1c-0.4-0.6-0.7-1.3-0.7-2c0,0,1.2-0.5,2.4-0.3v-1.1h0.7l-1.3-0.8
		c0,0-3.3,3.6-9.4,1.9c-1.2-0.3-2.4-0.8-3.4-1.5c0,0,1.2,3,4.9,2.9c0,0-0.3,0.4-0.8,0.9l0,0c-0.8,0.7-2.2,1.7-3.9,1.8l-0.8,1.3
		l1.9,0.5l0.4,0.2l1.7,0.5c0,0,0.1-1.1,1.4-0.9c0,0,0.9-2.4,4.4-1.6c0,0,0.6-0.2,1.4,0.2c0.3,0.2,0.6,0.4,0.9,0.7l-0.4-1.3
		C351.9,79,352.3,78.4,353.3,78.6z"/>
	<path class="st0" d="M583.5,49.5c-2.1,7.8,1.9,14.9,1.8,14.7c0,0,0-0.1,0-0.1c0,0,0,0,0,0v0c0,0,0,0,0,0c0,0.1,0,0.1,0,0.1
		c3.6,7.2,12.9,11.8,12.9,11.8c3.7,1.7,5.1-0.8,5.1-0.8l0.2-29.2l-11.3-7.4C583.8,42.3,583.5,49.5,583.5,49.5z"/>
	<path class="st0" d="M399.4,60.7c0,0,0.9-2,1.9-2.6l0.2-1.2h-0.2c0,0-0.4,1.5-1.4,1.5c-0.4,0-0.8-0.1-1.1-0.4l-0.1,0.3
		c0,0.1,0.1,0.2,0.1,0.3c0,0.4-0.2,0.7-0.4,0.9h0L399.4,60.7z"/>
	<path class="st0" d="M522,41.8h2.4l-0.1-22.3c-2.9-0.9-2.5,0.9-2.5,0.9l0.2,19.8V41.8z"/>
	<polygon class="st0" points="398.2,73.2 398.2,73.2 398.2,73.2 	"/>
	<path class="st0" d="M522,57.6v14.5c0.1,0.4,1.3,0.9,1.3,0.9l1.2,0.8l-0.1-16.2H522z"/>
	<polygon class="st0" points="409.9,74.4 409.9,74.4 409.9,74.4 	"/>
	<path class="st0" d="M408.5,74.7c0.3,0,0.6,0.2,0.8,0.5l0.6-0.8c-1.2-0.1-2.3-0.4-3.2-0.9l-0.7,1.1h-2.2c0,0-3.1-0.6-5.6-1.4
		l0.5,0.8c0.1,0,0.2,0,0.2,0c0.5,0,0.9,0.5,0.9,1c0,0.2,0,0.3-0.1,0.4l1.7,0.8c0.1-0.4,0.4-0.7,0.8-0.7c0.5,0,0.9,0.6,0.9,1.2
		c0,0.1,0,0.2,0,0.2l1.5,0.3c0-0.6,0.4-1.2,0.9-1.2c0.4,0,0.8,0.4,0.9,0.9l1.3-0.6c0-0.1,0-0.2,0-0.3
		C407.6,75.2,408,74.7,408.5,74.7z"/>
	<path class="st0" d="M399.6,57.5c0.2,0,0.5-0.2,0.9-0.7c0,0,0.3-1.8-1.1-1.6c0,0-1.1,0.5-0.6,1.6C398.9,56.8,399.1,57.5,399.6,57.5
		z"/>
	<polygon class="st0" points="524.3,19.5 524.3,19.5 524.3,19.5 	"/>
	<path class="st0" d="M398.9,86.6c0,0,0.2,0.6,1.5,1c0,0,0.2-1.1-0.1-2.3c0,0-0.5,0.2-0.9,0.5l0,0C399.1,86,398.9,86.2,398.9,86.6z"
		/>
	<path class="st0" d="M408.5,82.8c0,0,1.2-1.6,4.6-0.8c0,0,1.5,0.7,2.6,0.3c0,0,2-0.5,2.9-1.2l-1.1-1c0,0-0.7-0.3-1.2-0.9
		c-0.3-0.5-0.5-1-0.6-1.6c0-0.9,0.4-1.7,1.1-2.3c0.4-0.6,0.9-1.1,1.4-1.6c0.5-0.6,1.3-1.1,2.1-1.7c0,0-2.2,0.8-4.8,2.2
		c-1.7,0.2-3.4,0.2-5,0.1l-0.9,1.5c0,0.6-0.5,1.1-1,1.1c-0.3,0-0.5-0.2-0.7-0.4l-1.4,0.7c-0.1,0.6-0.5,1-1,1c-0.4,0-0.7-0.3-0.9-0.8
		l-1.7-0.2c-0.2,0.3-0.4,0.5-0.7,0.5c-0.5,0-0.9-0.5-0.9-1.1l-2-0.9c-0.1,0.1-0.3,0.2-0.5,0.2l0,0c-0.5,0-0.8-0.4-0.8-1
		c0-0.2,0.1-0.4,0.2-0.6l-1.1-1.5c-0.3-0.1-0.5-0.2-0.7-0.3c0,0-0.2-0.1-0.5-0.3c-0.4-0.1-0.9-0.2-1.5-0.2c0,0-0.7,3.4-1.7,5.7
		c-0.1,0.4-0.3,0.8-0.5,1.1l1.2,0.6c0,0,0.5-0.8,0.9-1.7c0.5-1.1,0.9-2.4,0.9-3.3l3.2,3l0.3,0.3l1.4,1.3c0,0,5.5-0.5,5.9,2.2
		c0,0-0.9,1.7-0.8,3.4c0,0,0.7,0.5,2,0.1l-0.6-0.9C406.6,83.7,407.8,83.6,408.5,82.8z"/>
	<path class="st0" d="M487.5,20.4c-2.7,0.1-2.9,1.9-2.9,1.9l-0.2,52.6c0,0.3,0.9,0.5,0.9,0.5l2.3,1.4L487.5,20.4L487.5,20.4z"/>
	<path class="st0" d="M498.1,25.5l-9.3-4.8l0.1,34.1l8.7-13h1.9V27.1C499.2,26.3,498.1,25.5,498.1,25.5z"/>
	<polygon class="st0" points="488.9,54.8 488.9,54.8 488.9,54.8 	"/>
	<path d="M338.8,87.7c0,0,0.5,0,0.9,0.2l-0.1-0.7h-2.9c0,0,0.4,0.2,0.5,0.4v3.1c0,0-0.2,0.2-0.4,0.2c0,0-0.1,0,0,0.1h0.6l2.2,0.1
		v-0.8c0,0-0.3,0.3-0.7,0.3h-0.7v-1.2h0.4l0.5,0.1l0.1-0.9l-0.7,0.2h-0.3v-1.1H338.8z"/>
	<polygon points="336.8,87.3 336.8,87.3 336.8,87.3 	"/>
	<path d="M343.8,87.5v2c0,0,0.1,0.9-0.6,1c0,0-0.6,0.1-0.7-0.7v-2c0-0.2,0.1-0.3,0.2-0.5l-1.5-0.1h0c0.2,0.1,0.3,0.2,0.4,0.4v2
		c0,0,0,1.4,1.5,1.5c0,0,1.4-0.1,1.5-1.4v-2.1c0,0,0-0.2,0.1-0.3h-1.1L343.8,87.5z"/>
	<polygon points="348.4,86.8 348.4,86.8 348.4,86.8 	"/>
	<path d="M334.9,87.8c0,0-0.1-0.6,0.3-0.8l-1.5-0.1v0c0,0,0.3,0.3,0.3,0.7v2.9c0,0,0,0.2-0.4,0.5l1.6,0.1l-0.4-0.6L334.9,87.8z"/>
	<path d="M362.9,83.5c0.2,1,1.6,1.8,1.6,1.8c0.7,0,0.4-1,0.4-1c-0.4-0.5-0.2-0.8-0.2-0.8c1-0.2,0.3-1.1,0.3-1.1
		C363.1,81.9,362.9,83.5,362.9,83.5z"/>
	<path d="M364,81.4c0,0,0.7-1.1-0.4-1.1c0,0-0.5,0.1-0.8-0.5c0,0-1.2-1.1-1.2,0.5c0,0-0.1,0.7,1,2C362.6,82.3,363.4,82.2,364,81.4z"
		/>
	<path d="M359.7,83.3c0.9,0,1.6-0.5,1.6-0.5c0.5-0.1,0.2-0.9,0.2-0.9c0-1.9-1.2-1.8-1.2-1.8c-0.6,0.1-0.6,0.7-0.6,0.7
		c0.2,1-0.2,1-0.2,1c-0.9,0.2-0.3,1.2-0.3,1.2C359.5,83.4,359.7,83.3,359.7,83.3z"/>
	<path d="M350.4,87.2c0,0,0.4,0,0.7,0.1l-0.3-0.7l-2.4,0.2c0,0,0.4,0.1,0.4,0.3l0.1,3.2l-0.2,0.2l2.3-0.3v-0.7c0,0-0.3,0.3-0.5,0.3
		h-0.7v-1.1h0.6c0,0,0.2,0,0.4,0.2l-0.1-0.9c0,0-0.2,0.1-0.3,0.2h-0.6v-1H350.4z"/>
	<path d="M355.1,86.1l-2.3,0.2h-0.2v0.1h0v0l0.1,0.8c0.2-0.4,0.9-0.4,0.9-0.4l0.1,2.9l-0.2,0.2l1.2-0.2l-0.2-0.1l-0.1-2.9
		c0.6-0.2,0.9,0.1,0.9,0.1l-0.1-0.8L355.1,86.1z"/>
	<path d="M410.5,67c-0.5,3.1-2,5-2,5c-0.3,0.8,0.6,0.2,0.6,0.2c1.3-1.8,1.7-5,1.7-5C410.7,66.3,410.5,67,410.5,67z"/>
	<path d="M373.9,51.1c0.5-0.1,0.9-0.3,0.9-0.6c0-0.2-0.5-0.3-1-0.2c-0.6,0-1,0.3-1,0.5C372.9,51,373.3,51.2,373.9,51.1z"/>
	<path d="M328.9,86.6l0.2,0.5v2.9l-0.3,0.3c0.6,0.3,1.2,0.3,1.9,0.2c0,0,2.6-0.6,1.1-3.1C331.7,87.4,331.1,86.5,328.9,86.6z
		 M331.3,89c0,0-0.2,0.9-1.3,0.8l0.1-2.8c0,0,0.6,0,1,0.8C331.1,87.9,331.4,88.5,331.3,89z"/>
	<polygon points="380.7,50.3 379.4,49.1 378.1,50.3 379.4,51.2 	"/>
	<path d="M384.6,51c0.6,0.1,1,0,1-0.3c0.1-0.2-0.4-0.4-0.9-0.5c-0.6-0.1-1,0-1,0.3C383.6,50.7,384.1,50.9,384.6,51z"/>
	<path d="M351.8,72.4c0,0,0.5,0,0.7-0.2c0,0-0.5-0.3-0.8-0.6c0,0-2.7-2.3-3.5-4c0,0-0.6-0.1-0.1,0.9C348,68.4,349.5,71.1,351.8,72.4
		z"/>
	<path d="M412.1,72.7c0.2,0.7,1-0.4,1-0.4c0.9-1.6,1.2-3.8,1.2-3.8c-0.2-1.7-0.5-0.2-0.5-0.2v0C413.4,70.4,412.1,72.7,412.1,72.7z"
		/>
	<path d="M412.1,67.8c-0.1,2.1-1.9,4.3-1.9,4.3c-0.4,0.7,0.5,0.3,0.5,0.3c1.6-1.4,1.9-4.7,1.9-4.7C412.4,66.7,412.1,67.8,412.1,67.8
		L412.1,67.8z"/>
	<path d="M349,73.5c0,0-1.3-0.6-2.3-1.8c0,0-0.5-0.4-1.9-2.1v0l-0.3-0.1c0,0-0.1,0.3,0.3,1.1C344.9,70.6,346.4,73.5,349,73.5z"/>
	<path d="M349.9,72.8c0,0,0.2,0.3,0.8,0.2c0,0,0.2-0.5-0.5-0.7c0,0-3-2-3.6-3.9v0c0,0-0.7-0.5-0.2,0.6
		C346.3,68.9,347.2,71.9,349.9,72.8z"/>
	<path d="M350.8,51.3c0,0,0.3-0.9,0.8,0.2c0,0-0.1,0.6,0.5,1.4c0,0,0.4,0.1,0.9,0c0,0.3,0.1,1-0.1,1.2c0,0-1.1,0.9-2.2-1
		c0,0,0.1,2.3,3.4,4.2c0,0,0.9-0.8,0.9-2.5c0,0,0.8-0.4,0.3-1.3c0,0,0.5-0.4,0-1.8c0,0,0,1.2-1.1,1.8c0,0-0.8,0.1-1.1-0.7
		c0.3-0.1,0.6-0.3,0.8-0.7c0,0,0.6-0.1-0.1-1.3c0,0-0.2-0.6,0.5-1.1c0.7-0.3,1.2-1.1,1.1-1.9c0,0-0.5,0.7-1.2,0.6
		c0,0-1.1-0.1-1.1,1.5c0,0,0.2,0.4,0.4,1.1c0,0,0.6,0.5,0.2,1c-0.3,0.3-1.1,0.4-1.5,0.4c0,0-0.3-0.5-0.3-1.2c0,0-0.2-1.6-1.7-1
		c0,0-0.5,0.6-1.9,0.2h0C348.4,50.5,349,52.4,350.8,51.3z M353.2,53.8c0,0,0.4,0.3,1.3,0.2c0,0,0.2,1-0.4,2.3c0,0-1.1-0.4-1.9-1.5
		C352.2,54.8,352.9,54.9,353.2,53.8z"/>
	<polygon points="585.3,64.1 585.3,64.1 585.3,64.1 	"/>
	<path d="M627.5,70.7V45.6c0,0-0.1-1.2,0.7-1.4l3.5-2.9c0,0,0.6-1-0.6-2.3c-1.1-1.4-22.7-12-22.7-12s-0.8-1.2-2.8,0.2
		c0,0-23.6,9.5-32.8,21.6c0,0-7.4,4.7-6.1,23.4h0c0-0.2,1.5,14.9,20.9,17.4l12.8-10.3c0,0,0.7-1.2,1.7-0.2l21.7,10.6l13.2-10.3
		c0,0,0.6-1.2-0.4-2.4L627.5,70.7z M603.3,75.2c0,0-1.5,2.5-5.1,0.8c0,0-9.3-4.6-12.9-11.8c0.1,0.2-3.9-6.9-1.8-14.7
		c0,0,0.3-7.2,8.7-10.8l11.3,7.4L603.3,75.2z"/>
	<path d="M585.4,64.2C585.4,64.2,585.3,64.1,585.4,64.2C585.3,64.1,585.3,64.2,585.4,64.2z"/>
	<polygon points="421,87.2 421,87.2 421,87.2 	"/>
	<path d="M564.2,77.9c0,0-5.3-2.5-6-8.8V18.1c0,0,0.7-0.3-0.9-1.3l-18.8-11c0,0-0.5-1-2.3,0.5l-16.1,10.1l-16-8.9
		c0,0-0.7-0.7-1.5-0.2c-1.3,0.8-20.2,10.8-20.2,10.8l-14-8.2c0,0-0.7-1-1.5-0.3l-15.4,9.9c0,0-2.2,0.8,0.9,2.5h0l0.5,0.2l10.6,7.7
		v45.1l-5.5,3.2c0,0-1.8,0.9-0.1,2l19.4,10.3l14.9-8.4c0,0,1.3-0.8,0.2-2l-3.6-2.3l0-20.1h10.6v15.7l-4.8,3.1c0,0-1.6,0.8,0.5,2.2
		l22.3,11.8l15-9.4c0,0,1.6-0.2,0.6-1.4l-7.2-4.9l-0.1-18l10.3-14.9h-10.4l-0.1-21.7l9.7,4.9c0,0,1.2,0.4,1.5,2.1v48.8
		c0,0,1.2,10.1,13.7,14.4L565,80C565,80,565.7,79.1,564.2,77.9z M485.3,75.4c0,0-0.9-0.2-0.9-0.5l0.2-52.6c0,0,0.2-1.8,2.9-1.9v0
		l0.1,56.5L485.3,75.4z M499.5,41.8h-1.9l-8.7,13v0h0l0,0l-0.1-34.1l9.3,4.8c0,0,1.1,0.8,1.4,1.6V41.8z M524.3,19.5L524.3,19.5
		L524.3,19.5C524.3,19.5,524.3,19.5,524.3,19.5l0.1,22.3H522v-1.6l-0.2-19.8C521.8,20.4,521.4,18.6,524.3,19.5z M523.3,73
		c0,0-1.2-0.5-1.3-0.9V57.6h2.4l0.1,16.2L523.3,73z"/>
	<path d="M418.5,87.2h-1.4l0.3,0.3l0.1,3.4l-0.4,0.3l1.1,0.1c0,0,2.1,0.1,2.1-2.1C420.3,89.1,420,87.2,418.5,87.2z M418.3,90.8v-3.2
		c0,0,0.7,0,1,1.2C419.3,88.8,419.6,90.3,418.3,90.8z"/>
	<path d="M409.4,87.1c-1.5-0.8-2.2,0-2.2,0c-1.7,1.6,0,3.4,0,3.4c1,0.9,2.3,0,2.3,0C411,88.3,409.4,87.1,409.4,87.1z M408.8,89.9
		c0,0-0.6,0.7-1-0.2c0,0-1.2-1.8,0.5-2.6h0c0,0,0.5-0.2,0.7,0.7C409,87.9,409.6,89.1,408.8,89.9z"/>
	<polygon points="105.2,64.1 105.2,64.1 105.2,64.1 	"/>
	<polygon points="405.8,86.7 405.9,86.4 404.9,86.3 403.7,88 403.1,85.8 402,85.6 402,86.1 401.9,88.9 401.8,89.1 402.6,89.5 
		402.6,87.6 403.5,89.7 404.8,88 404.8,89.7 404.6,90 406,90.2 405.8,89.8 	"/>
	<polygon points="414.1,87.2 412.8,87.1 412.9,87.4 413,88.7 411.7,87 410.9,87 411.2,87.4 411.1,90.2 411,90.7 412,90.8 
		411.9,90.4 411.9,89 413.3,91.1 414,91.1 413.9,90.8 413.9,87.5 	"/>
	<path d="M673.6,78.6c0,0-5.7-3.4-6.8-3.8c-1-0.5-0.6-1.5-0.6-1.5s-0.8-25.3-0.2-27.5c0.5-2,1.2-1.4,1.2-1.4s1.8-0.5,3.4-1.5
		c1.5-1,0.1-1.8,0.1-1.8s-18.4-9.7-19.8-10.8c-1.3-1.2-2.4,0-2.4,0s-12.8,7.8-13.8,9.4c-1,1.5-0.2,2.2-0.2,2.2s5.5,3.4,7,3.9
		c1.6,0.5,1,1.4,1,1.4l0.4,25.6c0.2,0.7,0,2.5,0,2.5s-2.2,1.7-3.4,2.7c-1.4,1.2-0.3,2.4-0.3,2.4L659,90.3c0,0,13.4-9.7,14.6-10.3
		C674.8,79.6,673.6,78.6,673.6,78.6z"/>
	<path d="M147.4,70.7V45.6c0,0-0.1-1.2,0.7-1.4l3.5-2.9c0,0,0.6-1-0.6-2.3c-1.1-1.4-22.7-12-22.7-12s-0.8-1.2-2.8,0.2
		c0,0-23.6,9.5-32.8,21.6c0,0-7.4,4.7-6.1,23.4c0-0.2,1.5,14.9,20.8,17.4l12.8-10.3c0,0,0.7-1.2,1.7-0.2l21.7,10.6L157,79.2
		c0,0,0.6-1.2-0.4-2.4L147.4,70.7z M123.2,75.2c0,0-1.5,2.5-5.1,0.8c0,0-9.3-4.6-12.9-11.8c0,0-3.9-7-1.8-14.7c0,0,0.3-7.2,8.7-10.8
		l11.3,7.4L123.2,75.2z"/>
	<path d="M361,84.1c0,0-0.6-0.6-1.6-0.3c0,0-0.6,0-0.3,1.2c0,0,0.5,0.1,0.5,0.7c0,0,0.1,0.6,0.9,0.5C360.5,86.2,361.4,85.6,361,84.1
		L361,84.1z"/>
	<path d="M654.5,28.3c7.9-3.3,11-10.7,11-10.7c2-7.3-2.7-9.3-2.7-9.3c-4.1-2.6-7.2-0.5-7.2-0.5c-4.7,2.6-6,7.5-6,7.5
		c-1.2,6.5,2.4,11.6,2.4,11.6C652.7,28.6,654.5,28.3,654.5,28.3z"/>
	<polygon points="433.7,86.4 433.6,85.6 433.4,85.7 431.6,86.1 431.3,86.1 431.4,87.1 431.7,86.8 432.2,86.7 432.2,89.8 432.1,90.1 
		433.1,89.9 433,89.6 433,86.4 	"/>
	<path d="M171.9,26.1L171.9,26.1L171.9,26.1c0.7,1.7,2.5,1.4,2.5,1.4c7.9-3.2,11-10.6,11-10.6c2-7.4-2.7-9.4-2.7-9.4
		C178.6,5,175.6,7,175.6,7c-4.7,2.6-6,7.5-6,7.5C168.4,21,171.9,26.1,171.9,26.1C171.9,26.1,171.9,26.1,171.9,26.1z"/>
	<polygon points="171.9,26.1 171.9,26.1 171.9,26.1 	"/>
	<path d="M448.2,64.7c-0.3-1.3-0.8-2.1-1.1-2.4l-0.1-0.1c0-3.4-3.4-4.8-3.4-4.8c-0.6-0.5-1.3-0.5-1.3-0.5c-0.8-0.2-1.9-1.5-1.9-1.5
		c-1.3,2.4-0.2,4.1-0.2,4.1c-2-0.4-11.8,1.6-11.8,1.6c-2.4,0.6-6.3-0.7-6.3-0.7c-2.5-1.4-2.1-3.2-2.1-3.2c0.5-2.9,2.9-2.5,2.9-2.5
		h0.7c2.1-0.4,3.5,0.4,3.5,0.4c4.1,2,11.5,0,11.5,0c3.5-1.4,4.5-6,4.5-6c-2.4,2.2-4.6,1.8-4.6,1.8c-0.5,0.1-1,0.2-1.5,0.4
		c0.4-1.7,2.4-2.5,2.4-2.5c-2.6-1.1-5.3,0.8-5.3,0.8c-1.4,1.5-4.4,2-4.4,2c2.3-0.9,3.5-3.4,3.5-3.4c-1.5,0.9-4.1,0.7-4.1,0.7
		c-4-0.8-8.5,2.9-8.5,2.9c-4,3.7-2.1,7.9-2.1,7.9c0.5,1.2,1.7,2.1,3,2.6c1.9,0.9,3.8,1.1,3.8,1.1c4.2,0.5,12.9-0.5,12.9-0.5
		c0.8-0.2,1.7-0.2,1.7-0.2c-1.6,1.2-1.9,3.8-1.9,3.8c1.6-0.6,2.8-0.6,2.8-0.6l-0.1,0.4c1.9-0.3,3.4,0,3.4,0c1,0.1,1.2-0.8,1.2-0.8
		c1.2,1.8-1.2,3.7-1.2,3.7c-1.4,1.4-4.4,0.3-4.4,0.3c-1.7-0.8-6-1.1-6-1.1c-0.8-1-9.8-2.8-9.8-2.8c-0.5-0.9-1.4-0.5-1.4-0.5
		l-0.8-0.1c-0.8-1.9-2.6-0.8-2.6-0.8c-1.3-0.2-3.4-1.4-4.5-2.1c-0.6-0.3-0.9-0.6-0.9-0.6c4.7-5.2,4.4-10.8,4.4-10.8
		c-0.6-8.1-7.2-9.4-7.2-9.4c-1-2.4-4.1-2.6-4.1-2.6l-0.2,0.5l0.3,0.7c-0.1,0.5,0.5,1.4,0.5,1.4l-1.3,0.3l-8-4.6
		c-2-0.5-1.2,1.2-1.2,1.2l0.4,0.6l6.9,5.4c-0.7,1.4-3.1,3.2-3.1,3.2l-0.9,0.2l-1.1,1.2l0.1,1.6c-0.5,0.4-1.6,0.4-1.6,0.4l-0.1,1
		c0.7,1,2.7,1,2.7,1l1.6,1.6c0.5,0.3,0.9-0.1,0.9-0.1l1.4-1.6l1.9-0.9c0.5,0.3,1.4,0.4,1.4,0.4c-1.3,0.5-2.7,2.4-2.7,2.4
		c-1.1-0.3-2.9,0.1-2.9,0.1l-0.2,1.1l-0.1,0.3l-0.4-0.3c-0.7-2.9-2.9-1.1-2.9-1.1c-0.7,0.8-0.8,2-0.2,2.8l0,0
		c0.1,0.1,0.2,0.2,0.2,0.3l-0.1,0.2c-0.1,0-0.1-0.1-0.2-0.1c-0.4,0-0.7,0.4-0.7,0.8l-0.1-0.1l-0.8-0.9l-0.3-0.3l-1.8-1.9
		c-2.1-2.8-5.2,0-5.2,0l-0.5-0.4c1.7-1,0.2-2.3,0.2-2.3l3.3-8.4l-0.9-1.1c1.6-3.3-1.8-3.4-1.8-3.4c-1-3-2.8-1.6-2.8-1.6
		c-0.6-2.9-2.8-1.4-2.8-1.4c-0.8-2-2.7-0.8-2.7-0.8l0.1-4.6l-2.2,0.1l-2.4-0.1l0.2,4.7c-2.4-1.2-2.8,1.2-2.8,1.2
		c-2.8-1.6-2.8,1.5-2.8,1.5c-2.3-0.7-2.2,1.5-2.2,1.5c-3.1,0.3-2.7,3-2.7,3l2.4,8.1c-0.6,1.5-7.6,10.1-7.6,10.1l-3-0.9l-0.2-0.5
		c0.7,0.4,1.2,0.2,1.2,0.2c-0.3-1,0.1-3,0.1-3c0.9-3.8-0.7-5.2-0.7-5.2c0.1-1.6-1-3.4-1-3.4c1.5-1.9-0.7-3.7-0.7-3.7l-0.3-0.5
		l-0.1-4c-0.4,0-0.6-0.5-0.6-0.5c-0.6-1.7-1.7-0.6-1.7-0.6c-0.8-1.8-2.1-0.4-2.1-0.4c-1.1-1.5-2.2,0-2.2,0l-0.9-2.9l-3,1.2l1,3.2
		c-2.2-0.5-1.5,1.7-1.5,1.7c-1.9,0.1-1,1.8-1,1.8c-1.8,0.2-1.1,2.2-1.1,2.2l2,3.3c-1.6,1.8-0.1,3-0.1,3c0.5,0.9,1.1,0.9,1.1,0.9
		c-0.9,2.7,0.3,5.4,0.3,5.4c-1.3,1.5-3.2,2.7-4.8,3.5c-2.5,1.2-4.6,1.8-4.6,1.8c-3.8,0.9-11.4,3.4-11.4,3.4c-2.7,0.7-6.9,2-6.9,2
		c-5.3,1.6-6.7-0.1-6.7-0.1c-1.3-0.8-0.3-2.9-0.3-2.9c1.3-2.6,3.9-3.2,3.9-3.2c1.9,1.2,2.6,1.9,2.6,1.9c1.2,1.2,3.3,1.1,3.3,1.1
		l0.1-0.4c0.9,0.1,1.5-0.2,1.5-0.2c-0.6-0.6-0.6-1.3-0.6-1.3c0-0.5-0.7-1.3-0.7-1.3l13.7-0.6c0.5-0.1,0.9-0.1,1.3-0.2
		c4.7-0.9,5.8-2,5.8-2c3.3-2.6,1.9-6.8,1.9-6.8c-1.8-4.1-5.2-4.3-5.2-4.3c-2.7-0.7-4.6-0.3-4.6-0.3c-1.5,0.1-4.5-0.7-4.5-0.7
		c-0.1,0.6,1.2,2.5,1.2,2.5c-0.9,0.1-1.8-0.2-2.5-0.8c-1.6-1.5-4.1-0.8-4.1-0.8c0.4,0.8,2.8,2.8,2.8,2.8c-1.4,0.1-5.1-1.5-5.1-1.5
		c0.7,3.3,4.4,5.5,4.4,5.5c4.4,1.9,8.3-0.1,8.3-0.1c1.9-1.2,3.7-1.9,3.7-1.9c1.1-0.5,2.3,0,2.8,1.1c0,0.1,0.1,0.2,0.1,0.3
		c-0.2,3.4-2.7,3.4-2.7,3.4c-7.1,1.5-16.6,0.5-16.6,0.5c0.7-0.9,0.8-3.2,0.8-3.2l-0.8,0.2c-4.1-0.4-5.2,0.5-5.2,0.5
		c-1.5,0.9-2.2,2.8-2.2,2.8c-1.9,0.8-3.4,1.8-4.4,2.8c-2.8,2.7-3.1,5.6-3.1,5.6c-0.2,3.5,1.8,4,1.8,4c-1.8,3.4,0.9,4.7,0.9,4.7
		c1.2-0.9,1.7-1.9,1.7-1.9c2.4-1.8,9.3-3.3,9.3-3.3c-1.4,1.1-2.2,4.3-2.2,4.3c-1.2,0.4-3.2-0.3-3.2-0.3c-1.1-0.1-1.1,0.8-1.1,0.8
		l-0.5,1.2l-0.7,2.2c-4.2-0.2-3.6,2.3-3.6,2.3l-0.6,6.6c1,2.5,2.6,2.1,2.6,2.1v-2.5h1.1c1.3,2.7,3.3,3.3,3.3,3.3h0.6
		c0.7-0.2,1,0.8,1,0.8l0.7,0.1l0.1-1.7l0.8-0.1c0.5,0.2,0.8,1,0.8,1h0.6c0.2-0.4,0.3-1.5,0.3-1.5c0.8-0.5,0.6-2.3,0.6-2.3
		c1.6-0.3,3.3,0.3,3.3,0.3l-0.1,1.5c1.2,2,2.7,2.3,2.7,2.3c1,0.3,2.5,0.5,4.2,0.6c3.1,0.2,6.9,0.1,10.5,0c3.9-0.2,7.7-0.5,11.5-0.9
		c0.4,0.6,0.6,0.5,0.6,0.5c1.7,0.6,3.5-1.2,3.5-1.2l-0.6,1.2c1.3-0.1,2.7-1,2.7-1c0.3,0.5,0.8,0.8,1.4,1l0.3-0.3l0.4,0.6
		c0.8-0.4,1.3-1.8,1.3-1.8c0.9,0.8,2.2,0.6,2.2,0.6l0.4,0.6l0.3-0.5c0.6,0.4,1.7,0.9,1.7,0.9c1.2-1.5,0.7-3.6,0.7-3.6l0.3,0.5
		l0.3-1.2c0.6,0.6,1.6,0.6,1.6,0.6c-1.9,0.8-0.8,2.2-0.8,2.2c0.2,0.4,0.6,0.7,1,0.9c0.6-0.1,1.2,0.4,1.4,1c1.5,0.7,2.4-0.9,2.4-0.9
		l0.2-1.2c-0.3-0.7-0.3-1.8-0.3-1.8l0.3,1.3l0.5,0.3l3.4,2.7l2.9-2.4c1.6,1.1,3.7,1.1,3.7,1.1c0.8,0,0.2-1,0.2-1
		c2.6,2.1,6.4,1.6,6.4,1.6c0.6-0.5,0.2-0.8,0.2-0.8c0.7-0.3,1.9,0.7,1.9,0.7c1,0.7,2.5,0.1,2.5,0.1c-0.1-0.5-0.6-0.6-0.6-0.6
		c0.7,0,0.3-1,0.3-1c0.7,0.1,1.3,0.9,1.3,0.9c0.6,0.8,1.7,0.6,1.7,0.6l0.1-0.5c0.7,0.5,2.3,0.6,2.3,0.6c0.4-0.4,0.1-1,0.1-1
		c7.1,2.2,17.6,1.8,17.6,1.8c13.7-0.1,15.6-2.8,15.6-2.8c0.5-0.6,0.2-1.3,0.2-1.3v-0.8c0.7-0.4,1.8-0.1,1.8-0.1l-1,2.1l-0.3,0.7
		c2.4,2.7,5.9-0.3,5.9-0.3v-0.9c0.7-0.3,1.3-1.1,1.3-1.1l1.6,0.4c0.2,0.9-0.4,1.9-0.4,1.9c2.5,0.7,3.3-1.9,3.3-1.9l-1.3-6.6
		c-2-2.3-5.5-1.9-5.5-1.9l-0.1-1.7c-0.2-0.6-0.9-1-1.5-1.1l-0.8-0.3l-0.7,0.3c-1.1,0.1-2.7,0.1-2.7,0.1v-0.1l0.2-2.3v-2.6l-0.2-0.9
		l2.1,0.3c1.6,0.7,5.2,0.7,5.2,0.7c1.2,0.5,1.2,1.7,1.2,1.7l-0.4,1.4c3.4-0.3,3-4,3-4C448.8,70,448.2,64.7,448.2,64.7z M423,66.8
		l1,1.4c0,0-1.7,1.3,0.8,2.4l0.1,0.6c0,0-3.4-0.3-6,0.9c0,0-2.3,1.5-5.1,1.5c0,0-4,0.3-6.4-1.1c0,0,1.2-2.7,1-4.1
		c0,0,0.1-0.3-0.1-1.1c0,0-0.3-0.3-0.3,0.4c0,0-0.9,4.2-2.2,5.1c-0.2,0.2-0.3,0.5-0.4,0.8c0,0-4.5-0.8-5.8-1.2c0,0-3.3-1.1-5.2-1.1
		c0,0-1.2-0.7-3.5,1.3c0,0-0.7,0.7-1.2,3.4c0,0,1.9,2.7-0.3,4c0,0,0.3-1,0.3-1.2c0,0-0.1-0.6-0.6-0.7c0,0-0.1,0.4,0.1,1.1
		c0,0,0.1,1.2-0.2,1.4c0,0-2.1,0.3-2.8-0.7l0,0c0,0,0.1-1.6,1.4-4.3l1.3-4.4c0,0,0.5-1.6,1.7-2.6c0.9-0.6,2.1-0.8,3.1-0.5
		c0,0,6.5,0.3,7.6,0.8c0,0-1-2.6,1.5-6.2c0,0,0.5-0.8-0.2-0.5c0,0-2.3,2-2.2,5.7l-1.8-0.2c0,0-0.5-5.4,2.6-8.7c0,0,3.7-0.7,10.8,3.3
		C412.1,62.2,420.4,66.6,423,66.8z M425.7,75.2L425.7,75.2l0.1,1.5c-1.1,0.3-2.1,0.6-3.3,0.7c-1.7,0.4-0.5,1.4-0.5,1.4
		c0.9,0.8,1.1,1.5,1.1,1.5c0.8,0.9-0.5,1.6-0.5,1.6c-2.7,0.5-5.6,3.2-5.6,3.2c-2.1,0.2-5.1-0.1-5.1-0.1c-0.8-0.6-1.4-2-1.4-2
		c1.1-1,2.1,0.2,2.1,0.2c0.9,0.5,2.6,0.3,2.6,0.3c1.5-0.8,3.6-1.8,3.6-1.8c0.4-0.3,1-0.2,1-0.2c0.6-0.2-0.1-0.7-0.1-0.7
		c-1-0.7-1.9-1.5-2.7-2.5c-0.8-1.3,0-1.9,0-1.9c1.2-1.4,5.9-4.6,5.9-4.6c0.7-0.2,1.4-0.3,2.2-0.2l0.2,1.1c-0.4,0.2-0.7,0.7-0.7,1.2
		C424.6,74.6,425.1,75.2,425.7,75.2z M430.7,84.6c0,0-1.5,0.2-4,0.4c0.9-0.3,1.5-1.1,1.5-2.2c0-0.5-0.2-1.1-0.5-1.5
		c-0.3-0.4-0.8-0.7-1.4-0.8v-1.5c0.5-0.2,0.8-0.6,0.8-1.1c0-0.1,0-0.2,0-0.3v0h1.3c0.6,1.2,2,3.1,4.4,3.4c0,0-2.1,0.7-3.2,1.6
		C429.7,82.7,428.4,84.1,430.7,84.6z M423,79.1c0,0-0.4-0.2-0.2-0.7c0,0,0.9,0,1.9-0.3l0,0c0.1,0.6,0.5,1,1.1,1.1v1.4
		c-0.9,0.2-1.6,1.1-1.6,2.2c0,1.2,0.7,2.1,1.7,2.2c0,0,0,0,0,0l0,0c0,0,0,0,0,0c-2,0.1-4.4,0.2-7,0.1c0,0,2.4-2.1,3.4-2.4
		c0,0,0.5,0,1.5-0.9C423.7,81.9,425.1,80.6,423,79.1z M425.2,82.8c0-0.7,0.5-1.2,1-1.2c0.5,0,0.8,0.3,1,0.7c0,0.2,0.1,0.3,0.1,0.5
		c0,0.7-0.5,1.2-1.1,1.2C425.7,84,425.2,83.5,425.2,82.8z M427.7,74.7c-0.2,0.4,0,1.2,0,1.2c-0.4,0.3-0.9,0.5-1.4,0.7V75
		c0.3-0.3,0.5-0.7,0.5-1.1c0-0.7-0.4-1.2-1-1.3l-0.1-0.8c0.6,0.3,1.2,0.7,1.6,1.3C427.9,74.4,427.7,74.7,427.7,74.7z M407.6,84.6
		l-0.5-0.6l2.9-0.8l1.2,1.8l-2.6-0.2l1.4-1L407.6,84.6z M407.2,84.6c-1.3,0.4-2-0.1-2-0.1c-0.1-1.7,0.8-3.4,0.8-3.4
		c-0.4-2.7-5.9-2.2-5.9-2.2l-1.4-1.3l-0.3-0.3l-3.2-3c0,0.9-0.4,2.2-0.9,3.3c-0.4,0.9-0.9,1.7-0.9,1.7l-1.2-0.6
		c0.2-0.3,0.4-0.7,0.5-1.1c1-2.4,1.7-5.7,1.7-5.7c0.6,0,1.1,0.1,1.5,0.2c0.3,0.2,0.5,0.3,0.5,0.3c0.2,0.1,0.5,0.2,0.7,0.3l1.1,1.5
		c-0.1,0.2-0.2,0.4-0.2,0.6c0,0.6,0.3,1,0.8,1l0,0c0.2,0,0.4-0.1,0.5-0.2l2,0.9c0,0.6,0.4,1.1,0.9,1.1c0.3,0,0.6-0.2,0.7-0.5
		l1.7,0.2c0.1,0.5,0.4,0.8,0.9,0.8c0.5,0,0.9-0.4,1-1l1.4-0.7c0.2,0.2,0.4,0.4,0.7,0.4c0.5,0,1-0.5,1-1.1l0.9-1.5
		c1.7,0.1,3.4,0.1,5-0.1c2.7-1.4,4.8-2.2,4.8-2.2c-0.8,0.6-1.6,1.1-2.1,1.7c-0.5,0.5-1,1-1.4,1.6c-0.7,0.5-1.1,1.4-1.1,2.3
		c0.1,0.6,0.3,1.1,0.6,1.6c0.5,0.6,1.2,0.9,1.2,0.9l1.1,1c-0.9,0.7-2.9,1.2-2.9,1.2c-1.1,0.4-2.6-0.3-2.6-0.3
		c-3.5-0.8-4.6,0.8-4.6,0.8c-0.7,0.8-2,0.9-2,0.9L407.2,84.6z M404.3,84.3c0,0-2.6-0.1-3.6-1.2c0,0-0.7-0.1,0.2-0.6
		c0,0,0.6-0.4,2.1-0.2c0,0,0.9,0.3,2.3-0.2L404.3,84.3L404.3,84.3z M400.3,85.3c0.3,1.2,0.1,2.3,0.1,2.3c-1.3-0.4-1.5-1-1.5-1
		c0-0.4,0.2-0.6,0.5-0.8l0,0C399.8,85.5,400.3,85.3,400.3,85.3z M402.1,79.7c0,0,0.3-0.4,2.5,0.4c0,0,2.1,1.3-0.4,1.9
		c0,0-0.3-1.4-1.4-1.5C402.8,80.5,402.9,80,402.1,79.7z M395.8,84.4c0.1-0.3,0.1-0.6,0-1l0.7-0.1l-0.1-0.3l-0.5,0.2
		c0.2-0.6-0.1-1.5-0.2-1.8c0.6,0.7,1,1.6,1,2.9l0,0C396.6,84.3,396.3,84.2,395.8,84.4z M396.8,84.7c-0.1,0.5-0.4,1-1,1.2l0-1.2
		C396.2,84.6,396.5,84.6,396.8,84.7z M394,79.6L394,79.6L394,79.6c1.1-1.6,1.6-4.1,1.6-4.1l0.4,0.5l-0.6,1.9l0.4,0.4l0.7-1.6
		l0.5,0.6l-0.8,1.3l0.6,0.5l0.8-1.1l0.5,0.4l-1.1,1.1l0.5,0.7l0.9-1.4l0.7,0.5l-1.2,1.2l0.5,0.4l1.2-1l0.4,0.3l-2.9,2.4
		C396.1,80.3,394,79.6,394,79.6z M393,75.2h0.3l-0.3,0.4l-0.7,1.6l-0.7-0.4l0.3-0.1l0.5-1l-1-0.5l-0.2,1.2l-0.4-0.7l0.2-1.3v-0.2
		L393,75.2z M392.1,72.6c0,0,0.2,0.4,0.6,0.4c0,0,0.6,0.3,0.6-0.9l0.3,0.1c0,0,0.1,0.4-0.2,1c0,0-0.6,1.1-1.6-0.2
		C391.8,73,391.6,72.7,392.1,72.6z M392.8,80.7l1.1-0.2c0.2,0.4,0.3,0.8,0.3,1.2c-0.2-0.1-0.7-0.2-1.4,0.1
		C393,81.4,392.9,81.1,392.8,80.7z M392.8,80.4l-1.4-0.1c0.3-0.2,0.6-0.4,0.9-0.4c0.5,0,1,0.1,1.4,0.3L392.8,80.4z M391.1,80.5
		l1.4,0.2c0,0.5,0,1-0.2,1.4c-0.3,0-0.6,0-0.8,0.1c0.1-0.4,0.2-1,0.1-1.3l-0.3,0.2c0,0,0.2,0.4-0.1,1.2c0,0-0.1,0-0.1,0.1
		c-0.1-0.2-0.1-0.5-0.1-0.7C391,81.6,390.8,81,391.1,80.5z M392.6,82.4c0.1,0.5,0.2,1.8-0.3,2.2c-0.4-0.4-0.8-1-1.1-1.8
		C391.6,82.5,392.1,82.4,392.6,82.4z M392.7,84.4c0.2-0.1,0.8-0.3,1.4-0.3c0.1,0.5,0,1.1-0.2,1.6c-0.4-0.2-0.9-0.5-1.3-0.9
		C392.5,84.7,392.6,84.6,392.7,84.4z M392.8,84c0.1-0.4,0.1-1,0-1.6c0.5-0.2,1-0.2,1.5-0.1c0.1,0.5,0.1,1-0.1,1.5
		C393.7,83.6,393.2,83.7,392.8,84z M394.3,80.3c0.5,0.2,0.9,0.5,1.3,0.8c-0.4,0-0.7,0.2-1,0.4C394.6,80.9,394.3,80.5,394.3,80.3z
		 M394.2,85.8l0.1-0.3c0.3-0.2,0.8-0.4,1.1-0.4l0.1,0.9c-0.2,0-0.5,0-0.9,0C394.6,86,394.5,85.9,394.2,85.8L394.2,85.8z M395.5,84.6
		c-0.1,0-0.6,0-1.1,0.6c0.1-0.4,0.1-0.9,0-1.4c0.4-0.1,0.8-0.2,1.2-0.2C395.7,83.8,395.6,84.4,395.5,84.6z M395.6,83.2
		c-0.2-0.1-0.5-0.1-1.1,0.2c0.2-0.4,0.2-0.9,0.1-1.4c0.2-0.2,0.5-0.3,0.8-0.3C395.6,82.2,395.7,82.7,395.6,83.2z M407.7,76.2
		l-1.3,0.6c-0.1-0.5-0.5-0.9-0.9-0.9c-0.5,0-0.9,0.6-0.9,1.2l-1.5-0.3c0-0.1,0-0.2,0-0.2c0-0.6-0.4-1.2-0.9-1.2
		c-0.4,0-0.7,0.3-0.8,0.7l-1.7-0.8c0.1-0.1,0.1-0.3,0.1-0.4c0-0.5-0.4-1-0.9-1c-0.1,0-0.2,0-0.2,0l-0.5-0.8c0,0,0,0,0,0h0l0,0
		c2.5,0.8,5.6,1.4,5.6,1.4h2.2l0.7-1.1c0.9,0.5,2.1,0.8,3.2,0.9v0l0,0c0,0,0,0,0,0l-0.6,0.8c-0.2-0.3-0.5-0.4-0.8-0.5
		c-0.5,0-0.9,0.5-0.9,1.2C407.6,76,407.7,76.1,407.7,76.2z M382.7,83.1L382.7,83.1c0,0,1.6,1.5,3.5,1.7c0.4,0.1,0.7,0.3,1,0.5
		c0,0,0.4,0.8-0.5,1.1c0,0-2.2-0.6-3.9-1.8L382.7,83.1L382.7,83.1z M384.2,82.6l1.6-2.4v0l0.5,0.5l-1.8,2.6L384.2,82.6z M385,83.4
		l1.7-2.4c0,0,0.9,0.5,2.4,0.1C389,81.1,387.5,85.1,385,83.4z M387.8,68h-8.2V55.3h8.5L387.8,68z M394.2,60.9c0.4,0.5,0.9,1,1.3,1.5
		c0.3,0.3,0.5,0.6,0.8,0.9l-0.2,0.9c0,0-0.1,0-0.1,0c-0.5,0-0.9,0.5-0.9,1.2c0,0.5,0.3,1,0.7,1.1l0.1,0.8l-0.4,0l-1.5-0.1
		c0.1-1.6-0.3-3.3-0.8-4.7c-0.7-2.1-1.6-3.7-1.6-3.7c0.3-0.3,0.8,0.3,1.5,1.1h0C393.5,60,394,60.4,394.2,60.9z M393.7,66.7h-1
		l-0.7-0.5l-0.8,0.3l-0.5,0.3l-0.3-1.2l0.3,0.1l1.2-0.3l0.9-1.2l0.2-0.5l0.4,1.2l-0.9,1L393.7,66.7z M391.9,60.3h-0.3l-1.9,1.5
		l0.3,0.8l0.5,0.5l-0.7,0.3l-1.1-2.2h0h0h0.4l2.1-1.6l0.2-0.4L391.9,60.3z M390.2,67.6l-0.8,1.4c0,0-0.2-3.4-1.1-4.9v-2.4v0
		C388.3,61.7,390.1,64.2,390.2,67.6z M396.6,64.5l0.1-0.5l1,1.3c-0.3,1.5,0.2,2.3,0.2,2.3l-1.6-0.2h0l-0.1-0.8
		c0.4-0.2,0.7-0.6,0.7-1C397,65,396.9,64.7,396.6,64.5z M414.5,59.3l-0.6-0.4l-0.5-0.6c0,0,1.2-2,1.4-3.1
		C414.8,55.2,416.2,57.1,414.5,59.3z M415.9,56.6c0,0-0.4-1.6-0.9-2.4c0,0,0.3-1.4,0.2-2.2c0,0,1.3,0.7,1.6,1.8
		C416.8,53.8,416.3,56.2,415.9,56.6z M417,53.1c-0.5-1.3-1.4-1.7-1.4-1.7c-1-1-1-3.3-1-3.3h0C418.1,49.5,417,53.1,417,53.1z
		 M416.9,49c0,0-2-1.2-2.7-2c0,0-0.3-1.3-0.9-2.1h0C413.4,45,416.4,45.8,416.9,49z M415.1,45.2l-2-0.8c-0.8-0.9-2.5-2.1-2.5-2.1
		C413.4,41.6,415.1,45.2,415.1,45.2z M405.9,42.3c-0.1,0.8-0.8,1.6-0.8,1.6c0.2-0.8-0.5-2.4-0.5-2.4L405.9,42.3z M398.4,39
		c0,0-0.7-0.3-0.7-1.2c0,0,0.1-0.6,1.2,0.1c0,0,1,0.8,1.2,2.6L398.4,39z M402.3,41.8L402.3,41.8l-1.8-1.4c0,0-0.1-1-0.5-1.8l1.3,0.9
		c0,0,0.3,0.4,0.7,1.1C402,40.6,402.1,40.7,402.3,41.8L402.3,41.8L402.3,41.8z M402.9,42c0,0,0.1-0.8-0.5-1.8h0V40l1.3,1
		c0,0,0.8,1,0.8,2.6L402.9,42z M400,52.4c0,0-1.8,0-1.8-1c0,0,0.5,0.2,1.2-0.2v0l0.6,0.6c0,0,0.7-0.1,1.3-0.5v0.4
		C401.2,51.7,400.7,52.4,400,52.4z M407.9,52.6c3.3,0.1,2.8-3.8,2.8-3.8c-0.7-1.4-0.5,0.7-0.5,0.7c-1.4,4.5-4.9,0.5-4.9,0.5
		c-0.4-0.3,0,0.7,0,0.7c0.2,0.5,0.4,0.4,0.4,0.4l0.3,0.3l-2.5,1c-0.4,0.6-1.1,1.6-1.1,1.6h-0.3v0v0l-1.2-1.1c0,0,1-0.8,0.8-1.8
		c0,0,0.7-0.1-0.7-0.1l-0.5,0.3c0,0-0.5-0.2-0.6-0.5l-0.2-1.2l0.9-1.1l0.8,0.1c0.6-0.8,2.1-2.1,3.3-3.2l0.4,0.5
		c-0.5,1.1,0.1,1.4,0.1,1.4c0.8,0.5,1.1-0.5,1.1-0.5c0.8,0.4,0.5-0.1,0.5-0.1c-0.8-0.2-1.7-1.2-1.8-1.4c1-0.9,1.8-1.5,1.8-1.5
		c0.5-1.1,1.3-1.6,1.3-1.6c-0.5-0.6-0.9-2.2-0.9-2.2c2.5,0,2.9,2.6,2.9,2.6c7.6,6,2.9,15.5,2.9,15.5c-2.3-1.9-7.4-3.1-7.4-3.1
		C406.3,53.4,407.9,52.6,407.9,52.6z M401.7,57.3c1.9-0.5,0.5-1.9,0.5-1.9c0.7-0.3,0.9-0.1,0.9-0.1c0.9-0.5,1.2,0.6,1.2,0.6
		c0.7-0.6,1.2-0.2,1.2-0.2c-1.5,1.4,0.3,1.9,0.3,1.9c0.9,0,1.1-0.9,1.1-0.9c-0.4-0.4-0.5-0.7-0.5-0.7c0.3,0.1,0.6,0.3,0.8,0.5
		c-0.1-0.6,0.5-0.6,0.5-0.6c0.3,0.5,0.2,0.9,0.2,0.9c0.3-0.3,0.9,0,0.9,0c-0.9,1,0.3,1.9,0.3,1.9c1.4,0.8,1.2-1.5,1.2-1.5
		c1,0,0.9,0.9,0.9,0.9l0.6-0.5c0.2,0.6,0.2,1,0.2,1c0.4-0.5,1-0.1,1-0.1c-1.6,1-0.5,1.9-0.5,1.9c0.5,0.4,0.9,0.1,0.9,0.1l-0.1-0.7
		l1.3,0.2l-1.3,1.5c-6.7-3.8-11.6-3.5-11.6-3.5h0L401.7,57.3z M399.5,55.2c1.4-0.2,1.1,1.6,1.1,1.6c-0.4,0.5-0.7,0.6-0.9,0.7
		c-0.5,0-0.8-0.6-0.8-0.6C398.3,55.7,399.5,55.2,399.5,55.2z M398.7,58.8c0-0.1,0-0.2-0.1-0.3l0.1-0.3c0.3,0.3,0.7,0.4,1.1,0.4
		c1,0,1.4-1.5,1.4-1.5h0.2l-0.2,1.2c-1,0.6-1.9,2.6-1.9,2.6l-1.1-1.1h0C398.5,59.5,398.7,59.2,398.7,58.8z M397.6,60.4l1.1,1.2
		c0,0-0.8,1.6-0.9,3h0l-1-1.2l0.1-0.4c0.4-0.2,0.6-0.6,0.6-1c0-0.3-0.1-0.6-0.4-0.8L397.6,60.4z M391.1,55.5c0,0,1.4-1.4,3.4,1.5
		l2.9,3.1h0l-0.4,0.9c-0.1,0-0.2-0.1-0.3-0.1c-0.5,0-0.9,0.5-0.9,1.1v0l-3.1-3.7c0,0-0.1-0.6-1.3-0.4c0,0-0.6-1.2-1.7-1.9
		L391.1,55.5z M389.4,56.5l0.5,0.9l-1.6,3.4l0.1-1.4l1-2.3l-1,0.7V57h0l0,0v0L389.4,56.5z M388.7,54.1c-0.9,0.3-1.3,0.1-1.3,0.1
		c-7.3-1.5-17.1,0.3-17.1,0.3c-1.5,0.1-1.2-0.6-1.2-0.6c0.3-1.1,0.9-0.9,0.9-0.9c9.5-1.9,17.9,0,17.9,0
		C389.2,53.2,388.7,54.1,388.7,54.1z M379.4,87.5c0.2,0,0.4,0.3,0.4,0.6c0,0.3-0.2,0.6-0.4,0.6c-0.3,0-0.5-0.3-0.5-0.6
		C378.9,87.8,379.1,87.5,379.4,87.5z M378.6,87.4c-0.3,0-0.5-0.3-0.5-0.7c0-0.3,0.2-0.6,0.5-0.6c0.3,0,0.5,0.3,0.5,0.6
		C379.1,87.1,378.9,87.4,378.6,87.4z M379.7,86.9c0-0.4,0.2-0.7,0.5-0.7c0.2,0,0.4,0.3,0.4,0.7c0,0.3-0.2,0.6-0.4,0.6
		C379.9,87.5,379.7,87.2,379.7,86.9z M379.3,85.9c-0.2,0-0.4-0.2-0.4-0.6c0-0.4,0.2-0.7,0.4-0.7c0.3,0,0.5,0.3,0.5,0.7
		S379.5,85.9,379.3,85.9z M379.2,55.3v12.6h-8.6l-0.4-12.7L379.2,55.3z M369.4,72.4c-0.3,0.1-0.6,0.3-0.8,0.6
		c-1.1-7.1,1.4-10.4,1.4-10.4v0v0l0.1,2C368.5,67.8,369.4,72.4,369.4,72.4z M367.7,71.1v0.8H366l-1.2-0.8l1.8-2.1l-1.5,0.1l-0.3,0.1
		v-1.1v0l0.3,0.2h2.3l0.3-0.1v0.9l-1.8,2H367.7z M367.4,66.8l-2.3-0.3l-0.2,0.2l0.1-1v-0.3l0.4,0.3l2.1,0.3h0.4l-0.2,1.2L367.4,66.8
		z M367.8,63.5l0.4-0.3c0.4-0.3,0.3-0.8,0.3-0.8c-0.2-0.9-0.7,0-0.7,0c-1.2,1.2-1.8-0.1-1.8-0.1c-0.5-0.9,0.8-2,0.8-2l0.7,0.5
		L367,61c-0.8,0.7-0.3,1.1-0.3,1.1c0.5,0.3,0.6-0.3,0.6-0.3c0.8-1.1,1.4-0.5,1.4-0.5c1,0.7,0.3,1.8,0.3,1.8l-0.3,0.4l-0.1,0.3
		L367.8,63.5z M368.6,58.8c0.3,1.4,1.3,1.2,1.3,1.2v0.6c-1.4,0.2-1.9-1.1-1.9-1.1c-0.5-2.3,1.7-2.4,1.7-2.4v0.8
		C368.5,57.6,368.6,58.8,368.6,58.8z M390.5,42.5l-1.5-1.4C389,41.1,391,39.4,390.5,42.5z M388.2,40.5l-1.8-1
		C388.5,37.5,388.2,40.5,388.2,40.5z M385.7,38.9l-1.8-0.8C383.9,38.1,385.7,35.8,385.7,38.9z M389.5,43.2c0,0-2.9-2.7-9-2.5V39
		C380.5,39,385.9,38.8,389.5,43.2z M378.4,38.2c-1.4-0.3-0.5-1.4-0.5-1.4v0h2.7c0.4,0.6-0.4,1.5-0.4,1.5
		C379.3,38.6,378.4,38.2,378.4,38.2z M380,38.9v2h-1.7v-2H380z M382.2,36.6c0,0,0.8,0,1,1.4h0l-2-0.1
		C381.2,37.9,381.3,36.4,382.2,36.6z M378,32.3h2.6l-0.8,1.2l0.5,0.5l0.6-0.8l0.1,2.5l-1.3-1l0.6,1.5l-2.3-0.1l1-1.2l-0.3-0.3
		l-1,0.9l-0.1-2.4l1,0.9l0.3-0.3L378,32.3z M376.8,37.9l-2,0.8C375.2,34.9,376.8,37.9,376.8,37.9z M374,38.9l-1.8,1.2
		C372.2,37.2,374,38.9,374,38.9z M377.9,38.9v2c-2.9-0.4-8,2-8,2C372.2,40.8,374.9,39.5,377.9,38.9z M371.3,40.6l-1.7,1.3
		C369.4,39.1,371.3,40.6,371.3,40.6z M368.9,42.4l-1.5,1.7C366.8,41.3,368.9,42.4,368.9,42.4z M368.2,47l0.9-2.4l1,3.8l-0.9-0.4
		c0.7,3.1,3.2,1.5,3.2,1.5c1.1-1.2,0.1-1.6,0.1-1.6c-1.3-0.7-1.5,0.1-1.5,0.1c-0.9-3.4,1.4-2.1,1.4-2.1c-0.1-2.2,0.8-2.4,0.8-2.4
		c1.2,0.4,1.2,2.3,1.2,2.3c1.3-2.1,2.1,0.1,2.1,0.1c0.1,0.3-0.1,0.9-0.1,0.9c-1.6-0.6-1.8,1.1-1.8,1.1c-0.2,1.1,1.8,1.4,1.8,1.4
		c2.4-0.7,2.4-3.3,2.4-3.3c-0.7,0.1-1.9,1.2-1.9,1.2v-4.4c0.6,1.1,2.1,1.7,2.1,1.7c-0.3-2-1.4-3.1-1.4-3.1l4.1-0.1
		c-1.4,1.3-1.3,3.2-1.3,3.2c1.2-0.2,1.8-1.4,1.8-1.4l0.1,3.8c-0.9-1.4-1.8-0.8-1.8-0.8c-0.4,3,2.2,3.1,2.2,3.1
		c1.8,0,1.9-1.5,1.9-1.5c-0.4-1.8-1.6-0.8-1.6-0.8c-0.5-3,1.7-1.7,1.7-1.7c-0.8-2,0.6-2.7,0.6-2.7c1.7,1,0.9,2.7,0.9,2.7
		c2.3-1.2,1.9,1.7,1.9,1.7c-2.2-1-1.9,1.3-1.9,1.3c1,2.4,3,0.6,3,0.6c0.4-0.6,0.5-1.2,0.5-1.2l-0.9,0.2l0.9-3.1l0.8,1.6l0.6-1.7
		l0.5,0.6l-2.9,7.2c-8.7-2-18.6-0.2-18.6-0.2h0L368.2,47z M358.8,64.1c0,0,0.2-1.4,0-2.2v0v0c0,0,1.8,0.7,2.7,0.6l0.4,0.2
		c0,0,2.6-2.9,3.4-3.6c0,0,2.5-3.7,2.9-5l0.9-1.4l0.2-0.4c0,0,0.3,0,0.5,0.2c0,0,0,0.7-0.4,0.3c-0.5,0.4-0.8,1-0.8,1.6
		c0,0,0.1,0.8,0.9,1v0.5c0,0-3.3,2.5-4.5,8.4c0,0-2,2-2.4,3.2l-3.4-0.1l-1.4-1.4C357.7,65.9,358.5,64.7,358.8,64.1z M364.2,70.7
		l-1.6-1.2v0l-1.5-1.1l1.7-0.2c0,0,0.3-1.5,1.5-2.3C364.3,66,364,68.9,364.2,70.7z M347.4,38.7h0.8l-0.7-0.8l0,0l1.4-0.7v1l0.5-0.5
		l0.6,1.4l-0.8,0.1l0.5,0.5c1.1,0.8,0.4,1.5,0.4,1.5l-0.5,0.4c-1.6,0.6-1.1-1.9-1.1-1.9l-0.5,0.5L347.4,38.7z M344.7,45.9
		c0.7-2.9,3.4-4.4,3.4-4.4l0.4,0.4l-0.5,0.6l0.2,0.7l-1.2,1l-1-0.5c-0.4,0.7-0.8,1.5-0.7,2.3l0.7,1.5c1.4,0.6,0.9-1.1,0.9-1.1
		c-0.4-0.5-0.9,0.6-0.9,0.6c-0.9-1.7,0.3-1.6,0.3-1.6c-0.5-0.5-0.3-1.3-0.3-1.3v0c1.2,0.1,1.3,1,1.3,1c0.1-1.7,1.4-0.2,1.4-0.2
		c-0.4,0.1-0.8,0.4-1.1,0.7c0,1,1.5,1,1.5,1c1.3-0.7,1.1-1.5,1.1-1.5c0.2-1.1-1.1-0.5-1.1-0.5l-0.5-1.1l0.8-0.1V43l-0.7-0.4l2.2-1.1
		l-0.3,0.9l0.2,0.2l0.5-0.6l0.4,1.6c-1-0.2-0.6,0.7-0.6,0.7c0.6,0.6,1,0.7,1.3,0.5c0.3-0.1,0.5-0.4,0.6-0.6c0.6-0.7-0.1-1-0.1-1
		c-0.8,0.3-0.9,0.6-0.9,0.6c-0.4-2.1,0.7-1.7,0.7-1.7c-0.3-1,0-1.5,0-1.5c0.8,0.4,0.9,1.2,0.9,1.2c1.2-1.3,1.4,0.1,1.4,0.1
		c-1.6,0.3-0.9,1.2-0.9,1.2c0.4,0.6,0.7,0.7,0.9,0.5c0.5-0.3,0.7-1.8,0.7-1.8c-0.9-1.3-3.2-1.5-3.2-1.4l-0.1,0.8l-1.2,0.2l-0.2-0.6
		l-0.3-0.1v-0.5c2.9-1.1,5.4,1.3,5.4,1.3l0.1,3.9c-4.2,0.6-9.5,4-9.5,4L344.7,45.9z M346.4,50.4c0,0,0.1,0.1,0.7-0.3
		c0,0,5-3.6,9.2-4v0c0,0,1.8,0.8,0.8,2.6c0,0,0.1,0.9,0.7,2.2l0.3,1c0,0.7-0.1,1.6-0.3,2.2c0,0-0.1,0.8,0.1,1.7
		c-0.6-0.1-1.1-0.5-1.4-1.1c0,0,0.7,2.2-0.5,3.9c0,0-0.6,0.7-0.7,2.3c0,0-0.7-0.7-1.5-1.1c0,0-1.9-0.4-3.3-2.7c0,0-0.1,0.7-0.7,1
		c0,0,0-1.4-0.7-1.8c0,0-0.3-0.4-1.2-2.1c0,0,0,1.2,0.7,2.4c0,0,0.9,1.2,1.2,2.2c0,0,0.4,0.2,0.8-0.5c0.3,0.6,0.7,1.2,1.2,1.8
		c0,0,2.8,0.8,3.6,2c0,0,0.1-0.8,0.8-1.9c0,0,1.2-2.4,0.9-4.1c0,0,0.5,0.2,1,0.3c0,0-0.2-1.9,0.2-3.2l0.2,0.7c0,0,0.7,1.2,0.4,3
		c0,0-0.6,1.5,0,3.3c0,0-0.9-0.2-1.3-0.9c0,0,0.7,1.9-0.2,3.7c0,0-0.4,1.1-0.6,2.3c0,0-1.2-0.7-1.5-2c0,0,0.1,1-0.2,2
		c-0.3-0.6-0.9-1-1.6-1.2c0,0-2.6-0.7-3.4-4c0,0-0.2,1.1-0.9,1.6c0,0-0.2-2.8-1.1-3.8c-0.8-1.4-1.1-3.1-0.8-4.7
		C347.5,53,345.4,52.2,346.4,50.4z M314,80.2c-1.3,3.4-0.6,7.7-0.6,7.7h-0.8v-5.4c-2.3-0.5-1.3-1.4-1.3-1.4
		C312.2,79.9,314,80.2,314,80.2L314,80.2z M318.7,92c-0.2-0.8-1-0.7-1-0.7c-0.4-1.2,0.6-1.2,0.6-1.2C318.8,90.9,318.7,92,318.7,92z
		 M319.1,90.1c0.1-2.9-2.6-2.7-2.6-2.7c2.3,0.9,1.8,2.3,1.8,2.3c-0.6-0.1-1.2,0.9-1.2,0.9c-3.4-2.1-2.9-6-2.9-6
		c0.4-6.8,1.9-8.1,1.9-8.1c0.5-0.2,0.7,0.1,0.7,0.1c1.5,0.7,3.4,0.1,3.4,0.1c0.8-0.2,1-1.8,1-1.8c0.5-2.8,2.4-4.9,2.4-4.9
		c-1.3,0.6-8.5,2.5-8.5,2.5c-3.4,0.8-4.2,3.6-4.2,3.6c-2.2-2.7,1.3-4.1,1.3-4.1c-1.5-0.4-2.4-1.2-2.7-2.2l0,0
		c-0.9-2.1,0.5-4.7,0.5-4.7c2.6-4,6.1-5,6.1-5c1.9-2.9,4.7-2.9,4.7-2.9c-0.4,0.8-1.1,1.5-1.1,1.5c1.8-0.4,3.4-1.9,3.4-1.9
		c0,2.3-2.1,3.2-2.1,3.2c7.6,1,17.9-0.2,17.9-0.2c4.2-0.7,4-4.6,4-4.6c-0.9-3.5-5.3-1.5-5.3-1.5c-9.4,5.4-13.9-1.8-13.9-1.8
		c2.3,0.9,6.7,0.9,6.7,0.9c-1.7-0.7-3.8-3.2-3.8-3.2c1.4,0.2,2.1,0.8,2.1,0.8c2.4,1.3,5,1,5,1c-0.8-0.9-2.1-2.4-2.1-2.4
		c1.6,0.7,3.2,0.7,3.2,0.7c1,0.1,1.8,0.2,1.8,0.2c1.7,0.3,2.6,0,2.6,0c5,0.5,5.6,5.1,5.6,5.1c0.5,5.9-6.3,6.4-6.3,6.4
		c-2.8,0.8-18,0.6-18,0.6c1.6,0.7,2,2.2,2,2.2c0.3,0.7,0.7,1.2,0.7,1.2c-1.6,0.1-3.2-2-3.2-2c0.5,1,1.8,2.5,1.8,2.5
		c-0.9,0.4-2.8-1.9-2.8-1.9c-3-2.5-5.5,0.1-5.5,0.1c-2.8,2.2-2.3,4-2.3,4c0,0.6,0.2,1.2,0.7,1.7c1,1.2,2.8,1,2.8,1
		c1.9,0,3.7-0.5,5.3-1c1.1-0.3,2.1-0.7,3.1-1.2c0.3,0,0.6,0,0.9,0.1c0.9-0.6,2.2-0.5,2.2-0.5c4.3-0.4,16.8-4.9,16.8-4.9
		c1.7-0.8,4.7-3.9,4.7-3.9c1.1,0.7,1.8,3.3,1.8,3.3c0.3-0.2,0.6-0.5,0.7-0.9c0.6,2.2,3.5,3.4,3.5,3.4c0.9,0.1,1.6,1,1.6,1l0.3-0.9
		c0.4,0.6,3.4,2.7,6.4,4.6c2.1,1.4,4.2,2.8,6.3,4.1c2.7-3,4.5-1.2,4.5-1.2c-0.4,0.4-0.9,0.3-0.9,0.3c-1.4-0.1-2.3,0.7-2.3,0.7
		c3.3-0.5,3.8,0.6,3.8,0.6c0.7,1.6-1.6,2.4-1.6,2.4c0-2.2-2.1-2.1-2.1-2.1c0.9,0.4,1.4,1.3,1.5,2.3c-0.7,1.9-2.4,0.4-2.4,0.4
		c-0.6-0.3-1.5-1.1-1.5-1.1c-4.8-0.3-9.5-3.6-9.5-3.6l-2.5,1.1c-1.3-1-2.4-2.3-3.2-3.8c-0.3-0.5-0.5-0.9-0.5-0.9v0.9
		c0.3,1.4,1.2,2.6,1.2,2.6c-4.2,4.8-11.8,0.5-11.8,0.5c-0.9-0.3-3.7-1.8-3.7-1.8c-7.9-0.1-11.5,7-11.5,7l-0.6,1
		c-0.6,4.4-2,4.4-2,4.4c0.7-1.7-1-2.5-1-2.5c-1.2,0.2-3.9,0.1-3.9,0.1c-1.8,3.2-0.3,5.4-0.3,5.4c3.4-0.1,2,2.7,2,2.7
		C319.9,90.1,319.1,90.1,319.1,90.1z M367.3,80.8l1.5,1.6c0,0,0.3,1-0.3,1.6c0,0-0.3-0.3-0.7-0.5c-0.2-0.1-0.5-0.2-0.8-0.2l-0.1-1.3
		c0,0,0.2-0.2,0.3-0.5v0C367.2,81.3,367.3,81.1,367.3,80.8z M367.3,79.1l1.3-1l0.6,0.4l-1,0.9c0,0-0.2,0.1-0.3,0.5L367.3,79.1z
		 M368.4,80.8L368.4,80.8L368.4,80.8L368.4,80.8c0,0,0.3-0.2,0.5-0.3l0.8-0.9l0.4,0.7l-0.8,0.8c0,0-0.2,0.3-0.2,0.7L368.4,80.8z
		 M370.4,78.5c0.4,1,1.2,1.6,1.2,1.6V80c0.3,0.7,1.2,1.4,1.2,1.4c0.1,0.7-0.6,0.7-0.6,0.7c-1.3-1.1-2.1-2.7-2.1-2.7
		C370,78.6,370.4,78.5,370.4,78.5z M371.6,79.5C371.6,79.5,371.5,79.4,371.6,79.5l-0.7-1.1c0.3-0.3,0.7-0.9,0.7-0.9
		c0.6,0.9,0.3,2.1,0.3,2.1C371.6,79.4,371.5,79.4,371.6,79.5L371.6,79.5z M372.9,81.1c0,0,0.9,0.3,0.9,1.2c0,0-0.5,1.4-1.9,1.3
		c0,0-0.9,0-0.3-1.2C371.7,82.4,373.3,82.8,372.9,81.1z M372.7,80.9c-0.6-0.3-0.7-1-0.7-1h0c0.5-0.6,0.4-1.1,0.4-1.1
		c0.3,0.5,0.5,0.5,0.5,0.5l0.3-0.2l0.6,0.9C373.1,80.2,372.7,80.9,372.7,80.9z M372.9,78.4c-0.1-0.5-0.3-0.9-0.6-1.3l0.9-0.7
		C373.5,77.4,372.9,78.4,372.9,78.4z M364.5,78.6L364.5,78.6l0.7-1.2l0.5,0.1c0.2,1.4,1.1,2.4,1.1,2.4l-0.1,2c-0.3-0.7-1-0.7-1-0.7
		C366.2,79.4,364.5,78.6,364.5,78.6z M359.5,75.6V76c-1-0.8-2.9-1.1-2.9-1.1v-0.3l0.7-0.3l0.9-0.3c0.4,0.6,1.6,1.1,2.8,1.5
		c1.9,0.7,3.9,1.1,3.9,1.1c-0.9,0.2-1.2,0.8-1.2,1.4c-0.4-0.4-1-0.5-1.7-0.4h0h0C361.3,76,359.5,75.6,359.5,75.6z M354.5,77.6
		c0.8,0.7,1.2,1.2,1.2,1.2c0.4,0.4,1.8,1.3,2,1.5c-0.3,1.1-0.4,2.2-0.1,3.3c0,0-2.4,0.1-3.2-1.5c0,0,0.2-0.5,0.8-0.7
		c0,0-2.2-0.9-2.8-1.9c0,0-0.1-0.2,0-0.3c0,0,0.3-0.6,1.4,0.2l0.2-0.5c0,0-1.5-1.2-1.8-3c0,0,1.8-0.2,2.7,0.5c0,0-0.4-0.5-0.4-1.3
		c0,0,1.9,0.1,2.8,1.8c0,0-0.2-1,0-1.5c0,0,1.8,0.6,2.4,1.5c0,0-0.2-0.5,0-0.9c0,0,1.2,0.7,1.3,1.9l-0.6,1.1h0c0,0-1.4-0.3-2.4,0.7
		c-1.3-0.7-3-2.2-3-2.2c-0.8-0.6-1.9-1-1.9-1L354.5,77.6z M358.5,87.3c0.1,0.2,0.3,0.3,0.5,0.3l-1.3,1.4l-0.1-1.5v0l0.1-1.2
		C357.7,86.3,358,86.9,358.5,87.3z M353.5,83v-1l-0.1-0.7c0.9,0.7,0.9,1.5,0.9,1.5c0.1,0.4,0.8,1,0.8,1l-0.7,0.2l-0.6,0.1v-0.8
		L353.5,83z M349.2,83.3c0.4,0.3,0.8,1,0.8,1c-0.4,0.1-1.3,0.1-1.3,0.1v0C348.5,83.6,349.2,83.3,349.2,83.3z M348.1,84.6
		c-2,0.4-7.5,0.4-7.5,0.4c-5.4-0.8-8.2-2.2-8.2-2.2c-0.5-0.3-0.2-0.7-0.2-0.7l-0.1-0.6c-0.1-0.7,0.5-0.6,0.5-0.6
		c2-0.3,3.6-2.5,3.6-2.5c0.5-1.2-0.6-1-0.6-1c-3.4-0.2-6.9-1.4-6.9-1.4h0c0.4-1.5,3.4-3.1,3.4-3.1c1.5-0.6,3.6-1.1,3.6-1.1
		c2.6,0.1,4.3,2.9,4.3,2.9l-1,0.8l0.4,0.3c0.9-0.9,1.9,0.1,1.9,0.1c0.9,0.5,3.1,1.3,3.1,1.3c-1,1.5-4,0.9-4,0.9
		c0.1,1.6-1.7,2.7-1.7,2.7c1.2,1,5.7,1.9,5.7,1.9c1.7-2.4,3.4-0.7,3.4-0.7c0.4,0.3,0.9,0.8,0.9,0.8
		C347.8,83.3,348.1,84.6,348.1,84.6z M326.2,80.6l0.2-1.2c0.5-0.6,1-1.3,1.2-1.8c0.1-0.2,0.2-0.4,0.3-0.6c0.2,0.2,0.7,0.4,1.2,0.6
		h0.1v0c2,0.6,5.4,0.9,5.4,0.9c-0.3,0.3-0.6,0.6-0.9,0.8c-1.1,0.9-2,1.1-2,1.1c-0.6,1-0.3,2.8-0.3,2.8c0.3,0.4,1.2,0.7,2,1
		c1,0.4,2,0.7,2,0.7c-1.2,0.2-2.4,0.2-3.6,0c-1.1-0.1-1.8-0.4-1.8-0.4l0.5-1C330.1,80.8,326.2,80.6,326.2,80.6z M352.3,80.3
		c-0.3-0.3-0.6-0.5-0.9-0.7c-0.8-0.4-1.4-0.2-1.4-0.2c-3.5-0.8-4.4,1.6-4.4,1.6c-1.3-0.2-1.4,0.9-1.4,0.9l-1.7-0.5l-0.4-0.2
		l-1.9-0.5l0.8-1.3c1.8-0.1,3.2-1.1,3.9-1.8l0,0c0.5-0.5,0.8-0.9,0.8-0.9c-3.7,0.1-4.9-2.9-4.9-2.9c1.1,0.6,2.2,1.1,3.4,1.5
		c6.1,1.8,9.4-1.9,9.4-1.9l1.3,0.8h-0.7v1.1c-1.2-0.2-2.4,0.3-2.4,0.3c0,0.7,0.3,1.4,0.7,2c0.3,0.6,0.7,1,0.7,1
		c-1-0.2-1.4,0.4-1.4,0.4L352.3,80.3z M350.2,81.5c-0.8,0-1,0.7-1,0.7c-0.7-1.4-2.9-1.3-2.9-1.3c0,0,0,0,0,0c0,0,0,0,0,0
		c1.3-1.8,3.1-0.6,3.1-0.6C349.8,80.7,350.2,81.5,350.2,81.5z M349.4,82.7c0,0,0.2-0.8,1.1-0.9c0,0,0.8,0.8,0.6,2.3l-0.7,0.1
		C350.4,84.2,350.3,83.1,349.4,82.7z M350.8,81.3c0,0,0.1-1-0.4-1.3c0,0,2.2-0.2,2.6,2.6c0,0-0.8-0.1-1.3,0.2
		C351.7,82.8,351.5,81.8,350.8,81.3z M352.8,82.9c0,0,0.3,0.4,0.2,1L352,84l-0.1-0.8l0,0C351.9,83.2,352.2,82.8,352.8,82.9z
		 M318.9,86.3c0,0,1.8-1.9,2.7,0.9c0,0,0,1-0.7,0.3C320.9,87.5,320.5,86,318.9,86.3L318.9,86.3z M321.1,91.2
		c-0.2-0.7-0.9-1.1-0.9-1.1c0.5-0.3,0.5-1,0.5-1C321.8,89.6,321.1,91.2,321.1,91.2z M321.7,89.5c-0.1-0.8-0.6-0.8-0.6-0.8v-0.6l0,0
		c0.5,0.2,0.7-0.2,0.7-0.2C322.2,88.8,321.7,89.5,321.7,89.5z M322.3,87c-1-3.6-3.5-1.2-3.5-1.2c-0.7-2.3,0.3-4,0.3-4
		c1.5,0.2,3.4,0,3.4,0c0.5,0,0.3,0.3,0.3,0.3c0.4,1.8-0.7,1.8-0.7,1.8c0.8,0.7,1,0.4,1,0.4c1.6,0.2,3-2.9,3-2.9
		c1.5-0.1,3.3,1.2,3.3,1.2c1,0.9,0,1.2,0,1.2c-1.4-0.3-3.8,0.2-3.8,0.2c-0.3,0.2-0.2,0.8-0.2,0.8c0.2,0.6,0.3,2.6,0.3,2.6
		C324.3,86.9,322.3,87,322.3,87z M355.2,90.6c-14.3,2-25.7,1-25.7,1c-3.4-0.6-3.5-2.4-3.5-2.4c0.8-2.8-0.3-4.3-0.3-4.3
		c-0.4-0.3-0.1-0.5-0.1-0.5h0c2.8,1.7,12.9,1.7,12.9,1.7c9.8,0.1,15.1-1.3,15.1-1.3c1.2,0,3.2-0.9,3.2-0.9c0.4-0.1,0.2,0.7,0.2,0.7
		c-0.6,2.3-0.1,4.5-0.1,4.5C356.9,90.7,355.2,90.6,355.2,90.6z M360.3,88.5c0,0-0.1,0.1-0.2,0.6c0,0,0.1,0.1-0.2,1.1
		c0,0,0.4,0.4-1.3,1.3c0.3-0.5,0.5-1,0.6-1.5c0,0-0.4,1-3.1,1.2c0,0,1.4-0.5,1.5-1.6l1.7-1.9h0.7v0C360,87.7,360.5,87.7,360.3,88.5z
		 M360.4,87.4c-0.2-0.7-1.1-0.7-1.1-0.7c-1.3-0.4-1.4-1.7-1.4-1.7c-0.1-0.7,0.4-1,0.4-1c0.5-0.3,0-0.8,0-0.8l0,0
		c-0.7-1.3-0.2-2.2-0.2-2.2c0.6-1.8,2.3-1.6,2.3-1.6c1,0.6,0.9-0.2,0.9-0.2c1-1.4,2.2-0.6,2.2-0.6c0.3,0.4,0.8,0.7,1.3,0.8
		c0.7,0.9,0.3,1.4,0.3,1.4c-0.1,0.3,0,0.6,0.2,0.9c0.9,0.2,0.8,1.2,0.8,1.2c0.2,1.1-0.5,2.9-0.5,2.9c-0.6,0.5-1.3,0.1-1.3,0.1
		c-0.5,0.1-0.3,0.3-0.3,0.3c0.5,0.8,0,1.2,0,1.2c-0.8,0.9-1.9,0.8-1.9,0.8C360.5,88.1,360.4,87.4,360.4,87.4z M362.8,91.8
		c-0.4-0.9-0.2-1.3-0.2-1.3c0.2-0.5-0.2-1.1-0.2-1.1c-0.6,0.8-0.2,2.2-0.2,2.2c-1.2-0.5-1.5-1.7-1.5-1.7c0-0.8,0.5-1.4,0.5-1.4h0
		c1.1,0.2,1.7,0.1,1.7,0.1C364.3,89.9,362.8,91.8,362.8,91.8z M369.2,87.9c-0.7,0-1-0.3-1-0.3c1.2,1.4,0,4,0,4
		c-1.2-0.5-1.4-1.9-1.4-1.9c0.2,1-0.2,1.3-0.2,1.3c-1-0.2-1.4-1.5-1.4-1.5c-0.1,1.2-0.7,0.7-0.7,0.7c-0.3-0.2-0.3-0.9-0.3-0.9
		c-0.5-0.1-0.8-0.9-0.8-0.9c1.5-0.4,1.5-1.8,1.5-1.8c0.1,0,0.2-0.1,0.3-0.2c1.1,0.7,1.3,1.5,1.3,1.5c0.4,0.2,1,1.2,1,1.2
		c-0.1-1.3-0.7-1.6-0.7-1.6c-0.2-0.6-0.6-1.2-1.1-1.6c0.8-0.9,0.8-2.4,0.8-2.4c1.1-0.4,2.1,1,2.1,1c-0.4,0.2-0.8,0.1-0.8,0.1
		C369.5,85.5,369.2,87.9,369.2,87.9z M369.6,84.7c-0.7-1.1-0.1-1.4-0.1-1.4l1.4-2c0.3,0.2,0.5,0.5,0.7,0.8l-1,1.3
		c-0.3,0.7,0.2,0.9,0.2,0.9l0.8,1c-0.2,0.8-0.9,0.7-0.9,0.7L369.6,84.7z M375.5,88.9c0,0-0.2-0.8-0.4-1.1c0,0-0.8-1.3-0.5,0.5
		c0,0-0.3,0.5,0.2,1.8c0,0,0.5,1-0.4,2c0,0-0.8,0.7-1.3-0.5c0,0,0-0.5-0.7-0.6c0,0-0.8,0.4-1.6-0.7c0,0-0.8-1.2,0.7-1.7
		c0,0,1.1-0.2,1.6-0.7c0,0,1-1.1-0.4-0.8c0,0-0.6,0.7-1.8,0.8c0,0-1.5-0.4-0.7-1.9c0,0,1.6,0.8,1.7-0.7c0.7,0.6,1.5,1.2,2.4,1.6
		c-0.5,1.5-1.4,3.3-1.4,3.3c0.8-0.9,1.4-2.5,1.7-3.1c0.4,0.2,0.8,0.3,1.2,0.4l0.1,1.7C375.9,89.1,375.8,89.6,375.5,88.9z
		 M373.4,78.7c0,0,0.6-1.4,0.1-2.6c0,0,0.8-2.1-0.4-2.5c0,0,0.3-2.2-2.6-1.9v-3.4l8.6-0.1l0.2,15.1
		C379.4,83.4,374.9,82.1,373.4,78.7z M382,90l-2.7,2.4l-3.2-2.6l0.1-7.4l1.3,0.9v6.3l1.8,1.3l1.6-1.8v-5.7l1.1-0.1V90z M379.8,83.5
		l-0.1-15.1h8.2h0h0v4.4c0,0-2.1,5.7-2.3,7.1C385.6,80,384.3,82.7,379.8,83.5z M385.5,91.3c0,0-2.1-0.5-2.9-1.2V89v0
		c0,0,1.7,1.4,2.9,1.4C385.5,90.4,386,91.1,385.5,91.3z M385.9,88.6L385.9,88.6l0.5-1.8c1.7-0.1,1.1-2,1.1-2c1.4-0.4,2.9-3,2.9-3
		l0.4,1l0.6,1.2c0.3,0.6,0.5,0.9,0.4,0.9l-0.9,0.8v-0.5l-1.7,1.5l0.6-3.3l-1.6,3.6C387.3,88.1,385.9,88.6,385.9,88.6z M401.7,91.9
		c0,0-2.4-0.5-3-2.3l0.6,2c0,0-0.8-0.3-1.7-1.6c0,0-1.8-2.5-3.8-1.4c0,0,2,1.1,2.7,2.3c0,0-0.6,0.2-1.2-0.1c0.4,0.3,0.7,0.7,1,1.1
		c0,0-1.2,0-2.3-1c0,0-1.8-1.8-3.7-1c0,0,1.3,0.5,1.8,1.7c0,0-4.5,0-5.9-2.1l0,0l0,0l0,0l3-1.5l0.6-0.5l1.2-0.5
		c0.8,0.2,1.5,0.6,2.2,1.1l0.2-0.2c0,0-0.9-1.2-2.2-1.3l1.4-0.9c0,0,1.8,2.2,4.2,0.6c0,0,1.3-0.9,0.8-3.6l3.6-2.8v-0.3
		c0,0,1.3,0.1,1.3,1.2c0,0,1.1-0.4,1.3,1c0,0-2.5-0.7-3.7,0.5l0.2,2.3c0,0-1.6,0.2-1.9,2c0,0,0,1.2,2.2,1.5l0.1,2c0,0,0.6,1,1.3,1
		C401.7,91,402,91.6,401.7,91.9z M434.1,90.6c0,0-0.1,0.5-3.3,0.9c0,0-18.9,2.6-30-1.7c0,0,0.4-3.3-0.2-5.7c0,0,4.5,2.4,16.3,2.1
		c0,0,14.5-0.4,17-1.9c0,0,0.4,3.5,1.1,4.4C435.1,88.7,435.3,90.5,434.1,90.6z M435.2,87.3L435.2,87.3L435.2,87.3l-0.9-3.4
		c-0.7-1.1-1.8-0.4-1.8-0.4c-0.9,0.7-2,0.3-2,0.3c-1.2-0.2-0.2-1-0.2-1c1.6-1,3.2-1.5,3.2-1.5c1.2,0.5,3.4,0.4,3.4,0.4
		c1.9-0.3,1.5,1.3,1.5,1.3c0.1,1.5-0.4,4-0.4,4C436.7,87.1,435.2,87.3,435.2,87.3z M436.6,90.7c1-0.8,1.7-2.8,1.7-2.8l0,0l0,0l0,0
		l0.5,0.5l-1.5,2.7L436.6,90.7z M438,91.2l1.2-2.6v0c0,0,1.2,0.4,2.3-0.1l0.3,1.6C441.8,90.1,440.2,91.6,438,91.2z M445.1,82.2
		c0,0,1.7,0.4,1.2,1.8c0,0,0,0.7-1.7,0.1c0,0,0.9,2.2,0.5,3.9c0,0-1-0.4-1.5-0.5v0v0c0,0,0.6-2.8-2.2-3.7c0,0,0-0.8-0.1-1
		c0,0,0.1-0.5-0.1-1.3C441.3,81.5,442.2,81.3,445.1,82.2z M445,71.8c0,0,1.8,1.2-0.3,2.9c0,0,0.8-1.8-1.8-2.4c0,0-2.2,0.1-3.3-0.4
		c0,0-4.5-0.8-5.3-1.2c0,0,0.6,4.3,0.4,6.1c0,0,0,0.7-0.1,1.3c0,0,2,1,4.7,0.3l1,1.1v0.7c0,0,0.1,2.6,0.4,3.8c0,0,0.3,0.1,0.7,0.2
		c0,0,2.8,1.7,0.8,4.1c0,0,0.1-1.5-1.2-2.1c0,0-0.2-0.1,0,0.2c0,0,0.5,0.6,0.3,1.2c0,0-0.1,0.4-0.4,0.5c0,0-2,0.5-2.4-0.5
		c0,0,0.6-1.4,0.6-2.7c0,0,0.2-3.2-1-3.8c0,0-0.2-0.3-1.4-0.3c0,0-3.4,0.5-6.8-2.5c0,0-1.5-1-1.8-3.4c0,0,0.6-2.8-2.6-3.7l-0.4-0.8
		c0,0,0.3-0.3,0.5-0.8c0,0,0.2-0.4,0.1-0.8c-0.1-0.4-0.5-0.8-1.3-1l-0.5-0.7c0,0,5.5,0.8,8.5,1.7c0.4,0.1,0.9,0.3,1.2,0.4
		c0,0,2.1-0.1,3.3,0.5c0,0,4,1.5,6.9,0.8c0,0,1.3-0.5,2-1.7c0.5-1,0.6-2.4-0.6-4.1c0,0-0.4,0.8-1.2,1c0,0-1.4,0.5-3.3-0.7
		c0,0,1-0.9,2.4-0.7c0,0,0.5-0.1,0-0.2c0,0-2.7-0.6-4.6,1.6c0,0,0.9-3.4,3.7-3c0,0,0.6-0.1,0-0.5c0,0-1.3-0.7-6-0.1
		c0,0-6.2,0.9-11.4,0.6c0,0-5.6-1-6.3-4.1c0,0-1.2-3.3,2.8-6.5c0,0,4-2.9,8.7-1.6c0,0-0.1,0.8-2.1,1.4c0,0,0.9,0.3,1.4,0.1
		c0,0,3.1,0,4.2-0.9c0,0,2-1.6,3.6-1.9c0,0-1.1,0.9-1.3,1.6c0,0,0.1,1.1-2.7,2.2c0,0,4.1-0.2,5.4-1.4c0,0,2.1,0.2,3.5-0.9
		c0,0-0.8,2.5-3.3,3.6c0,0-5,1.5-9.8,0.2c-1.5-0.5-3.1-0.7-4.7-0.8c0,0-3.3-0.3-4.7,2.7c0,0-1.2,2.9,2,4.3c0,0,3.1,1.9,8.5,0.6
		c0,0,7.7-1.6,12.1-1.4c0,0-2.9-1.9-1.8-3.7c0,0,0.5,0.7,1.5,1.3c0,0,1.3,0.7,1.4,2.1c0,0,0.7,0.5,0.5,0.1c0,0-0.5-1.1-0.5-1.9
		c0,0,2.6,0.6,2.6,4.8c0,0,0.7,0.3,1.4,1.8c0,0,0.4,2.3-0.1,4.3l0,0C447,70.1,446.4,71.3,445,71.8z"/>
	<polygon points="430.1,86.7 430.3,86.3 428.9,86.4 428.9,86.4 429.2,86.7 429.3,90.2 429.2,90.4 430.4,90.3 430.2,90.1 	"/>
	<path d="M105.3,64.2c0,0,0,0-0.1-0.1C105.2,64.1,105.2,64.2,105.3,64.2z"/>
	<path d="M73.3,6H23.5L4.7,19.8c0,0-2.1,0.7-0.2,2l0,0l39.5,0.5l-0.1,49c-1.1-0.1-2.3-0.1-3.5-0.1c0,0-18.5-0.5-28.2,16.5
		c0,0-1.7,1.9,0.8,1.7c0,0,27.9-4.1,44.2,0.5c0,0,8.4-14.8,25.8-18.1l0.2-50.9C83.1,20.8,84,7,73.3,6z M45.6,22.3l11.7,0.2
		c0,0,3.5-0.7,2.9,1.9l0.1,15.3h0c-0.7,0.8-8,9.3-14.7-1.6L45.6,22.3z M45.6,41c5.9,7.7,12,3.5,14.7,1.1l0.1,9.2
		c-2.4-2.3-8.3-6.4-14.8,0.1L45.6,41z M45.5,71.4l0-17.5c7.7-9.5,14.6-0.4,14.6-0.3l0.1-0.1l0.1,21.9C60.5,75.3,54.1,72.3,45.5,71.4
		z"/>
	<path d="M426.5,86.5L426.5,86.5c0,0-1.6-0.2-1.9,2.1c0,0,0.1,2.1,1.8,2.3c0,0,1.8,0,2-2C428.4,88.8,428.4,86.4,426.5,86.5z
		 M426.5,90.3c-0.5,0.1-0.7-0.6-0.7-0.6c-0.6-1.9,0.2-2.5,0.2-2.5c0.1-0.2,0.5-0.2,0.5-0.2l0,0h0h0c1,0.1,0.9,1.6,0.9,1.6
		C427.5,90,426.5,90.3,426.5,90.3z"/>
	<path d="M424.1,90.4l-0.9-1.4c0,0,1.1-1,0.1-2.1c0,0-1-0.3-1.8,0.1l-0.6,0.1l0.3,0.2l0.1,3.5l-0.1,0.3h1l-0.1-0.3v-1.5h0.5
		c0,0,0.2,0.8,1.1,1.4c0,0,0.3,0.2,0.8,0C424.4,90.6,424.3,90.5,424.1,90.4z M422.8,88.7c-0.2,0.3-0.7,0.2-0.7,0.2v0v-1.6
		c0.4-0.4,0.7,0.1,0.7,0.1C423.3,88.2,422.8,88.7,422.8,88.7z"/>
	<path d="M22.6,72.1c0,0,9.4-6.5,9.7-18.4V25.3c0,0,0.7-2.5-3-0.8v0l-17.6,9.3c0,0-0.4,0.4-0.4,1.4v34c0,0,0,3.7-3.4,8.8
		c0,0-2.2,3.5,1.5,2.2C9.3,80.2,19.8,75.8,22.6,72.1z"/>
	<path d="M302.2,37.9c-2-1.5-19-11-19-11s-1.2-0.8-2.7,0.5c-1.5,1.4-11.8,8.6-11.8,8.6s-1.2,1.1-0.1,1.8c1,0.7,7.1,4.5,7.1,4.5
		s1,0,1.2,1.2c0.2,1.1-0.3,34-0.3,34s0.3,2.2-2.2,3c0,0-6.5,3.6-13.4-3.2l0.2-35c0,0-0.5-1.4,1.2-1.7c1.7-0.4,2.4-1.4,2.4-1.4
		s1-1-0.9-2.5c-1.8-1.5-16.5-9-16.5-9l0,0c0,0-1.9-2.1-3.3,0L231.5,36c0,0-1.3,0.5-0.5,1.7c0.9,1.2,6.3,3.4,6.3,3.4s1,0.3,1.4,1.3
		l0.5,38.7c0,0-7.9,4.9-8.2,17.4c0,0-1.7,9.7,11.3,14.7c0,0,12.7,6.2,29.5-1.3c0,0,7.5-5.6,14.4-4.6c0,0,5,1,1.8,6.8
		c0,0-1,4.3-10,4.6c-0.7,0-1.3,0.1-1.8,0.1c-1.1,0.2-2.2,0.7,0.8,1.3c0,0,1.8,1.5,8.2,0.2c0,0,14.3-3.9,14-15.6c0,0,0.3-5.3-3.7-9.5
		c0,0-2.5-3-8.8-4.3c0,0-5.5-1.2-12.5,0.3c0,0-11.1,3.7-18.3,6.2c0,0-8.5,2.4-14.3-1.4c0,0-4.7-2.1-4.4-6.3c0,0,0.7-5.9,9.9-9.1
		c0,0,7.2-2.7,13.4,1.2c0,0,7.3,6.7,23,6.5c0,0,13-1.2,14.3-9.5l0.2-32.3c0,0-0.5-0.9,0.5-1.9l4.8-4.8
		C303.2,39.8,304.1,39.4,302.2,37.9z"/>
	<path d="M193.5,77.9c0,0-5.8-3.4-6.8-3.8c-1-0.5-0.6-1.5-0.6-1.5s-0.8-25.3-0.2-27.5c0.5-2.1,1.2-1.4,1.2-1.4s1.8-0.5,3.4-1.5
		c1.5-1,0.1-1.9,0.1-1.9s-18.4-9.7-19.8-10.8c-1.4-1.2-2.4,0-2.4,0s-12.8,7.9-13.8,9.4c-1,1.5-0.2,2.2-0.2,2.2s5.5,3.4,7,4
		c1.6,0.5,1,1.3,1,1.3l0.4,25.6c0.2,0.7,0,2.5,0,2.5s-2.2,1.8-3.4,2.8c-1.4,1.2-0.3,2.4-0.3,2.4l19.8,10c0,0,13.4-9.7,14.6-10.2
		C194.7,78.9,193.5,77.9,193.5,77.9z"/>
	<path d="M276.2,118.8c0.6-0.1,1.1-0.2,1.1-0.2S270.3,119,276.2,118.8z"/>
	<path d="M362.7,86.8c0,0,0.4,0.3,0.8-0.4c0,0,0.1-1.6-1.4-1.8c0,0-1.3,0.3-0.9,2.4c0,0,0.7,0.6,0.7-0.3
		C361.9,86.7,362.2,86.3,362.7,86.8z"/>
	<path d="M230.9,78.2c-1.1-0.5-6.1-4-6.1-4s-1,0.6-1.5-1.6c-0.5-2.2,0.1-63.9,0.1-63.9s0.2-1.4-2.7-0.7c-2.8,0.7-24.4,7.7-24.4,7.7
		h0c0,0-0.9,0.2-0.2,1.3c0,0,3.2,1.1,4.1,3.7c1,2.7,0.4,53.1,0.4,53.1l-3.5,3.5c0,0-1.3,0.8,0.7,2.2c1.6,1,21.5,9.8,21.5,9.8
		l12.2-9.5C231.5,79.9,232.1,78.7,230.9,78.2z"/>
	<path d="M711,79c-1.1-0.5-6.1-4-6.1-4s-1,0.5-1.5-1.7c-0.5-2.2,0.1-64.6,0.1-64.6s0.1-1.4-2.7-0.7c-2.9,0.7-24.4,7.7-24.4,7.7
		s-0.9,0.1-0.2,1.3c0,0,3.2,1,4.1,3.6c1,2.7,0.4,54,0.4,54l-3.5,3.5c0,0-1.3,0.9,0.7,2.2c1.6,1.1,21.5,9.9,21.5,9.9l12.2-9.5
		C711.6,80.7,712.2,79.5,711,79z"/>
</g>
</svg>
