<?xml version="1.0" encoding="utf-8"?>
<!-- Generator: Adobe Illustrator 27.0.1, SVG Export Plug-In . SVG Version: 6.00 Build 0)  -->
<svg version="1.1" id="Layer_1" xmlns="http://www.w3.org/2000/svg" xmlns:xlink="http://www.w3.org/1999/xlink" x="0px" y="0px"
	 viewBox="0 0 715.4 100" style="enable-background:new 0 0 715.4 100;" xml:space="preserve">
<g>
	<path d="M55.7,13c0-7.7-7.4-9.6-13.1-9.6v1.2c3.5,0,6.2,1.2,6.2,3.9c0,1.5-1.2,3.9-4.6,3.9c-2.7,0-8.5-1.5-12.7-3.1
		c-5-1.9-9.6-3.5-13.5-3.5C10.3,5.7,4.9,11.5,4.9,18c0,5.8,4.3,7.7,5.8,8.5l0.4-0.8c-0.8-0.8-1.9-1.5-1.9-3.9c0-1.5,1.5-4.3,5.4-4.3
		c3.5,0,8.1,1.5,14.3,3.5c5.4,1.5,11.2,2.7,14.3,3.1v12l-5.8,5v0.4l5.8,5v16.6c-3.1,1.9-6.6,2.3-9.6,2.3c-5.8,0-10.8-1.5-15-6.2
		l15.8-7.7V24.9l-19.4,8.5c1.5-5,5.8-8.5,10-10.8l-0.4-1.2c-11.6,3-22,13.9-22,27c0,15.4,12.7,27,27,27C45,75.5,55,63.2,55,50.5
		h-0.8c-2.3,5-5.8,9.6-10,11.9V46.6l6.2-5v-0.4l-6.2-5v-12C50,24.2,55.7,20.4,55.7,13z M22.2,55.4l-4.6,2.3
		c-2.7-3.5-4.3-8.1-4.3-14.7c0-2.7,0-5.8,0.8-8.1l8.1-3.5L22.2,55.4L22.2,55.4z M63.1,64.3l-5,3.9l0.8,0.8l2.3-1.9l8.5,7.7L81.2,67
		l-0.4-0.8l-3.1,1.9l-3.9-3.9V38.1l3.1-2.3l6.6,5.4v23.5c0,14.7-3.1,17-9.6,19.3v1.2c10.8,0.4,20.9-3.1,20.9-22V37.7l3.5-2.7
		l-0.8-0.8l-3.1,2.3l-9.7-8.1l-10.8,8.1V4.9h-0.8l-13.5,9.3v0.8c1.5,0.8,3.9,1.5,3.9,5.8L63.1,64.3z M133.7,60.1l-9.6,7.4l-9.6-7.7
		v-4.6l18.1-12.3v-0.4l-9.3-13.9l-20.1,10.8v25.4l-3.9,3.1l0.8,0.8l3.5-2.7l13.1,9.6l17.4-13.9C134.1,61.6,133.7,60.1,133.7,60.1z
		 M114.4,53.6V34.6l0.8-0.4l8.5,13.5C123.7,47.7,114.4,53.6,114.4,53.6z M207.4,9.5c0-1.2-0.4-2.3-0.8-3.5h-0.8
		c-1.2,3.1-2.7,4.6-6.6,4.6c-3.5,0-5.8-1.9-7.4-3.5l-11.2,12.7l0.8,0.8l3.9-3.5c2.3,1.9,4.3,3.5,9.6,3.9v32l-22.7-38.9
		c-1.9-3.1-4.6-7.4-10-7.4c-6.2,0-11.6,5.4-10.8,13.9h1.2c0.4-2.3,1.5-5,4.3-5c1.9,0,3.9,1.9,5,3.9v12.8c-7,0-11.6,3.1-11.6,8.8
		c0,3.1,1.5,7.7,6.2,8.8v-0.8c-0.8-0.8-1.2-1.5-1.2-2.7c0-1.9,1.5-3.5,4.3-3.5h1.9v16.2c-8.1,0-14.7,4.6-14.7,12.3
		c0,7.4,6.2,10.8,13.1,10.4v-0.8c-4.3-0.4-6.2-2.3-6.2-5c0-3.5,2.3-5,5.4-5s5.8,1.9,7.7,4.3L178,63.2l-0.8-0.8l-2.7,3.1
		c-4.3-3.9-6.6-5-11.6-5.8V21.1l30.9,54h2.3v-54C202,20.7,207.4,16.1,207.4,9.5z M235.5,60.1l-9.6,7.4l-9.6-7.7v-4.6l18.1-12.3v-0.4
		l-9.3-13.9L205,39.2v25.4l-3.9,3.1l0.8,0.8l3.5-2.7l13.1,9.6l17.4-13.9C235.9,61.6,235.5,60.1,235.5,60.1z M216.3,53.6V34.6
		l0.8-0.4l8.5,13.5C225.5,47.7,216.3,53.6,216.3,53.6z M298.4,32.7l-2.7,1.9l-7.3-6.2l-8.5,7.7l3.5,3.5v28.9l-9.2-5.8V38.9l3.1-1.9
		l-9-8.5l-8.5,7.7l3.5,3.5v27.8l-1.2,0.8l-8.1-5.8V39.2c0-5.4-2.7-7-5.8-8.8c-2.7-1.9-4.3-3.1-4.3-5.8c0-2.3,2.3-3.5,3.5-4.3v-0.8
		c-3.1,0-11.2,3.1-11.2,10.4c0,3.9,1.9,5.4,3.9,7.4s3.9,3.5,3.9,7v22.4l-4.3,3.1l0.8,0.8l3.9-3.1l8.8,7.7l9.6-6.6l10.8,6.6
		l20.5-11.9V37.3l5-3.9L298.4,32.7L298.4,32.7z M370.2,11.4l-3.9,3.5l-8.5-7.7l-12.7,9.2V8h-1.2l0.4,62.5c-1.2,0-4.6-0.8-7.4-1.5
		l-0.7-52.1c0-3.9-2.7-9.2-9.6-9.2c-6.9,0-11.6,5.4-11.6,10.8h1.2c0.4-2.3,1.5-4.3,3.9-4.3s4.3,1.5,4.3,6.6v15
		c-7,0.4-11.2,4.3-11.2,9.2c0,3.1,1.5,7.7,6.2,7.7v-0.8c-1.5-0.8-1.9-1.9-1.9-2.7c0-2.3,1.9-3.1,5-3.1h1.5V70
		c-5.8,1.9-8.1,6.2-8.1,10.8c0,6.6,5,11.2,12.7,11.2c5.4,0,10-0.8,14.7-1.9c3.9-0.8,8.8-1.9,11.2-1.9c3.1,0,4.3,1.5,4.3,3.5
		c0,2.7-1.2,3.9-2.7,4.3v0.8c6-1,9.9-4.9,9.9-10.7c0-5.8-5.8-9.2-11.9-9.2c-3.1,0-9.6,1.2-14.3,1.9c-5.4,1.2-10.8,1.9-12.3,1.9
		c-2.7,0-5.8-1.2-5.8-5c0-3.1,2.7-5.8,9.2-5.8c3.5,0,7.7,0.4,11.9,1.5c4.6,1.2,8.8,2.3,12.7,2.3c5.8,0,10.8-1.9,10.8-10V16.1
		l4.6-3.9L370.2,11.4L370.2,11.4z M354.4,35c-1.2,1.2-2.7,2.3-4.6,2.3s-3.9-1.2-4.6-2.3V18l3.9-2.7l5.4,5V35z M354.4,46.6
		c-0.8-0.8-2.7-1.9-4.6-1.9s-3.9,1.2-4.6,1.9v-10c0.8,0.8,2.7,1.9,4.6,1.9s3.9-1.2,4.6-1.9V46.6z M354.4,64.7c0,3.1-1.9,6.2-6.2,6.2
		h-3.1V48.1c0.8-0.8,2.7-1.9,4.6-1.9c1.9,0,3.5,1.2,4.6,1.9C354.4,48.1,354.4,64.7,354.4,64.7z M407.2,37.3l-12.3-8.9L376,39.2v25.1
		l-3.9,3.1l0.4,0.8l3.1-2.3l12.3,9.2l19.3-11.6C407.2,63.6,407.2,37.3,407.2,37.3z M386.4,61.6V33.9l9.6,7v27.4
		C396.1,68.2,386.4,61.6,386.4,61.6z M443.9,29.2h-0.8c-1.2,0.8-2.3,1.5-3.5,1.5c-1.5,0-3.5-0.8-4.3-1.9h-0.8l-6.5,7.4l-6.6-7.4
		l-11.6,7.7l0.4,0.8l3.1-1.9l3.9,4.3v24.3l-5,3.9l0.8,0.8l2.3-1.9l9.2,7.7l11.9-8.1l-0.4-0.8l-3.5,1.9l-4.6-3.9v-27
		c1.9,1.9,4.3,3.9,7,3.9C440.4,40.8,443.5,35.4,443.9,29.2L443.9,29.2z M490.2,66.3L477,75.1l-17.8-27l12.8-19.7h0.8
		c1.5,1.5,3.9,3.1,6.6,3.1c2.7,0,4.6-1.5,5.8-3.1h0.8c-0.4,7.7-5.8,12.3-9.6,12.3c-3.9,0-5.8-1.9-8.1-3.1l-1.2,1.9l19.3,28.5
		l3.9-2.3v0.5H490.2z M447.7,64.3l-5,3.9l0.8,0.8l2.3-1.9l8.5,7.7l11.6-7.7l-0.8-0.8l-3.1,1.9l-3.9-3.9V4.9h-0.4l-13.9,9.2v0.8
		c1.5,0.8,3.9,1.2,3.9,5.8C447.7,20.7,447.7,64.3,447.7,64.3z M554.2,13c0-7.7-7.4-9.6-13.1-9.6v1.2c3.5,0,6.2,1.2,6.2,3.9
		c0,1.5-1.2,3.9-4.6,3.9c-2.7,0-8.5-1.5-12.7-3.1c-5-1.5-9.6-3.1-13.5-3.1c-7.7,0-13.1,5.8-13.1,12.3c0,5.8,4.3,7.7,5.8,8.5l0.4-0.8
		c-1.2-0.8-2.3-1.5-2.3-3.9c0-1.5,1.5-4.3,5.4-4.3c3.5,0,8.1,1.5,14.3,3.5c5.4,1.5,11.2,2.7,14.3,3.1v11.9l-5.8,5v0.4l5.8,5v16.6
		c-3.1,1.9-6.6,2.3-9.6,2.3c-5.8,0-10.8-1.5-15-6.2l15.8-7.7V24.9L513,33.4c1.9-5,6.2-8.5,10-11.2l-0.4-0.8
		c-11.6,3.1-22,13.5-22,26.6c0,15.4,12.7,27,27,27C543,75.1,553,62.7,553,50h-0.8c-2.3,5-5.8,9.6-10,11.9V46.2l6.2-5v-0.4l-5.8-5
		V24.2C548.4,24.2,554.2,20.4,554.2,13z M520.7,55.4l-4.6,2.3c-2.7-3.5-4.3-8.1-4.3-14.7c0-2.7,0.4-5.8,1.2-8.1l8.1-3.5L520.7,55.4z
		 M567.7,9.1h-0.4l-7.7,6.6v0.4l6.6,7.4h0.8l7.7-6.6v-0.4L567.7,9.1L567.7,9.1z M579.3,66.3l-3.1,1.9l-3.9-3.9V37.7l3.9-2.7
		l-0.8-0.8l-2.7,2.3l-6.9-8.1l-11.2,7.7l0.8,1.2l2.7-1.9l3.5,4.3v25.1l-5,3.9l0.4,0.8l2.7-1.9l8.5,7.7l11.6-7.7L579.3,66.3
		L579.3,66.3z M643.7,65.9l-2.7,1.9l-4.3-3.9V37.7l3.9-3.1l-0.8-0.8l-3.1,2.7l-8.8-8.1l-11.6,8.1l-8.8-8.1l-10.8,8.1l-7-8.1
		l-11.2,7.7l0.4,1.2l2.7-1.9l3.9,4.3v25.1l-3.1,3.1l8.8,7.4l8.5-7.7l-3.5-3.5V37.7l3.5-2.3l5.8,5.4v23.1l-3.1,3.1l8.8,7.4l8.5-7.7
		l-3.5-3.5V37.7l3.1-1.9l6.2,5.4v23.1l-2.7,2.7l8.8,8.1l11.9-8.1L643.7,65.9L643.7,65.9z M677.3,60.1l-9.6,7.4l-9.6-7.7v-4.6
		l18.1-12.3v-0.4l-9.3-13.9l-20.1,10.8v26.2l13.5,9.6l17.4-13.9C677.7,61.2,677.3,60.1,677.3,60.1z M658,53.6V34.6l0.8-0.4l8.5,13.5
		C667.3,47.7,658,53.6,658,53.6z M712.4,50.1l-7.4-5.8c5-4.3,7-10,7-13.9V28h-0.8c-0.8,1.9-2.3,3.9-5.4,3.9s-5-1.5-7-3.9l-17.4,9.6
		v13.9l6.6,5c-6.6,5.8-7.7,9.6-7.7,12.7c0,3.9,1.9,6.6,5,7.7l0.4-0.8c-0.8-0.8-1.5-1.2-1.5-3.1c0-1.2,1.5-3.1,4.6-3.1
		c3.9,0,6.2,2.7,7.4,3.9l16.6-10V50.1C712.8,50.1,712.4,50.1,712.4,50.1z M708.1,38.5c-2.7,4.6-8.5,9.2-11.9,11.6l-4.3-3.5V33.1
		c1.5,3.9,5.8,7,10,7C704.7,40,706.2,39.6,708.1,38.5z M701.6,69.4c-1.9-4.3-6.6-7.4-11.2-7.4c-1.2,0-4.3,0-7.4,1.9
		c1.9-3.1,7-8.5,13.5-12.3l4.6,3.9L701.6,69.4L701.6,69.4z"/>
</g>
</svg>
