<?xml version="1.0" encoding="utf-8"?>
<!-- Generator: Adobe Illustrator 27.0.1, SVG Export Plug-In . SVG Version: 6.00 Build 0)  -->
<svg version="1.1" id="Layer_1" xmlns="http://www.w3.org/2000/svg" xmlns:xlink="http://www.w3.org/1999/xlink" x="0px" y="0px"
	 viewBox="0 0 500 170.7" style="enable-background:new 0 0 500 170.7;" xml:space="preserve">
<style type="text/css">
	.st0{fill:#121212;}
</style>
<g>
	<path class="st0" d="M116.3,90.7c1.7-0.8,3.5-1.8,5.1-2.7c0.7-0.3,3-1.2,3.3-1.8c0.2-0.3,0-1.3,0-1.8v-4V52V24.3v-3.7
		c0-0.2,0.2-1.3,0-1.5c-0.2-0.2-1.5,0-1.7,0h-3.7c-1.3,0-1.2,0.2-2,1.2c-3.2,4.2-6.3,8.3-9.5,12.6c-1.5,2-3,3.8-4.3,5.8
		c-1,1.3-1,1.5-2.8,1.5l0.5-11c0.2-2.7,0.2-5.3,0.3-8c0-1,0.2-2,0.2-3c0-0.3-0.2-1.3,0-1.5c0.3-0.5,3.3-0.2,4.2-0.2h62.1
		c0.3,0,1.8-0.2,2.2,0c0.3,0.2,0.2,1.2,0.2,1.7c0.2,2.2,0.2,4.5,0.3,6.6c0.2,4.8,0.3,9.5,0.7,14.3v1c-0.8,0-1.5,0.2-2.2-0.3
		c-0.7-0.5-1.2-1.5-1.7-2.2c-2-2.7-4-5.5-6.1-8.1l-6-8c-0.3-0.5-0.8-1.7-1.5-2c-0.5-0.3-1.5-0.2-2.2-0.2h-2.7c-0.3,0-1.7-0.2-2,0
		c-0.2,0.2,0,0.2-0.2,0.5c-0.3,1.3,0,3,0,4.3v57.8c0,1.2-0.3,2.8,0,4s3,2,4.2,2.5c1.2,0.7,3.2,1.2,4.2,2.2c0.3,0.3,0.7,2,0.3,2.5
		c-0.2,0.2-1,0-1.2,0H118c-0.3,0-1.5,0.2-1.7,0C116.2,92.6,116.3,91.2,116.3,90.7z M177.9,87.7V63.5V23.8v-6.5c0-1,0.3-2.5,0-3.5
		c-0.3-1.2-2.3-1.3-3.5-1.8c-0.7-0.2-2.8-0.7-3.2-1.3V9.4h0.5c0.7-0.3,2-0.3,2.8-0.5c1.5-0.3,3-0.5,4.3-0.8
		c3.3-0.7,6.8-1.3,10.1-1.8c2-0.3,4-0.8,6-1.2c0.5,0,2.5-0.3,2.7,0c0.2,0.2,0,0.8,0,1v34.4c6.3-6.3,17.3-9.8,26.1-7.6
		c7.6,1.8,10.1,9,10.1,16.3c0.2,9.3,0,18.4,0,27.7v7.5c0,0.8-0.3,2.8,0,3.7c0.2,0.3,0.8,0.5,1.2,0.8c1.2,0.7,2.5,1.3,3.7,2
		c0.2,0.2,0.7,0.3,0.7,0.5c0.2,0.2,0.2,1.7,0,1.8c-0.2,0.3-0.2,0.2-0.7,0.2c-1.8,0.3-3.8,0-5.5,0h-23.9c-0.2,0-1,0.2-1.2,0
		c-0.2-0.2-0.2-2,0-2.2c0.5-0.7,2.5-1.3,3.2-1.8c0.5-0.3,2-0.8,2.3-1.3c0.3-0.5,0-2.3,0-2.8v-6.8c0-9.6,0.2-19.4,0-29.1
		c0-2.8-0.5-6.1-3.3-7.6c-1.5-0.8-3.5-1-5.1-1c-1.3,0-2.7,0.3-3.8,0.7c-1,0.3-2.8,1-3.5,1.8c-0.5,0.7-0.2,1.7-0.2,2.5v39.2
		c0,0.8-0.3,2.5,0,3.2c0.2,0.3,0.8,0.7,1.3,0.8c1.2,0.7,2.7,1.3,3.8,2c0.2,0.2,0.5,0.2,0.5,0.3c0.2,0.2,0.2,1.7,0,1.8
		c-0.2,0.2-0.3,0.2-0.7,0.2c-1.8,0.2-3.8,0-5.6,0h-23.9c-0.2,0-1,0.2-1.2,0c-0.2-0.2,0-1.8,0.2-2.2c0.5-0.7,2.3-1.3,3-1.7
		C176.3,88.7,177.1,88.2,177.9,87.7z M256.8,64.8c0.3,7.3,2.7,15.4,9.3,19.4c3.5,2,7.8,2.7,11.8,2.3c4.8-0.5,8.8-2.8,13-5
		c0,0.7,0.2,1.8,0,2.5c-0.3,0.7-1.2,1.5-1.7,2c-0.7,0.7-1.5,1.5-2.3,2.2c-2.8,2.3-6,4-9.3,5.1c-6.3,2.2-13.6,2-20.1,0.3
		c-5.1-1.3-9.8-3.8-13.3-7.8c-3.5-4-5.5-9.1-6.3-14.4c-1.8-11.5,0.3-24.6,9.8-32.2c8.3-6.6,21.6-8,31.4-4C291,40.1,293,53.7,293,65
		h-31.7C259.8,64.8,258.3,64.8,256.8,64.8L256.8,64.8z M256.5,62c3.3-0.2,6.6-0.3,10.1-0.7c2-0.2,4.2-0.2,6.1-0.3
		c0.3,0,1.2,0,1.5-0.2c0.5-0.3,0.2-3.7,0.2-4.3c-0.2-6-0.3-13.3-3.8-18.4c-2.5-3.7-6.3-3-8.6,0.3C257.2,44.9,256.5,54.5,256.5,62z
		 M5.1,122.6c0-9.3,1.8-18.9,7-26.7c5-7.6,13-12.6,21.6-15.1c10.5-3,22.1-2.7,32.9-0.7c2.3,0.5,4.6,1,6.8,1.7c0.3,0.2,1.8,0.5,2,0.8
		v0.5c0.5,2,0.2,4.5,0.2,6.5c0.2,5.1,0.2,10.5,0.3,15.6c-0.7,0-1.8,0.2-2.3,0c-0.3-0.2-0.7-1-0.8-1.3c-1.3-2-2.7-4-3.8-6.1
		c-2.8-4.5-5.8-9-8.6-13.5c-1.5-2.5-5.6-2.5-8.3-2.5c-3,0-6,0.5-8.5,2c-5.6,3.5-8.3,10.3-9.8,16.4c-2.3,9.8-2.2,20.1-1.7,30.1
		c0.5,7.6,1.2,15.8,4.2,22.8c1.8,4.3,5,8.1,9.8,9.1c1.5,0.3,3,0.3,4.6,0.2c1-0.2,4.5-0.3,5-1.3c0.2-0.3,0-1.2,0-1.5v-2.8v-17.6v-6.8
		c0-1.2,0.3-1.7-0.7-2.3c-1.2-0.7-2.5-1.3-3.7-2.2c-0.8-0.5-2.5-1-3-1.7c-0.3-0.3-0.5-2.2-0.2-2.5c0.2-0.3,0.2-0.2,0.7-0.2
		c1.5-0.3,3.5,0,5,0h25.7c1.7,0,3.5-0.2,5.1,0h0.7c0.2,0.2,0.2,2.5,0,2.8c-0.3,0.5-2,1.2-2.7,1.5c-1.2,0.7-2.5,1.3-3.7,2.2
		c-1.3,0.7-1.2,0.7-1.2,2.2v27.1c0,0.3,0.2,1.2,0,1.5c-0.3,0.8-3.8,1.3-4.8,1.7c-2.8,0.8-5.8,1.5-8.8,2c-5.8,1-11.6,1.3-17.4,1.2
		c-9.3-0.3-19.1-2.3-26.7-8c-6.6-4.8-11-12.1-13-20.1C5.6,132.7,5.1,127.6,5.1,122.6z M81.6,107.5c0-0.3-0.2-1.7,0-1.8
		c0.2-0.2,0.3,0,0.5-0.2c1-0.5,2.3-0.5,3.5-0.7c3.8-0.7,7.6-1.3,11.6-2c3-0.5,6-1.2,8.8-1.5c0.8-0.2,1.8-0.2,2.7,0.2
		c0.8,0.2,0.5,0,0.7,0.7c0.3,2,0,4.3,0,6.3v34.7c0,4.2-1.2,11.8,2.8,14.3c2,1.3,4.8,1.3,7.1,0.8c1.8-0.3,5.3-1.7,6-3.7
		c0.2-0.5,0-1.2,0-1.7v-3.5v-23.1v-10.6v-3.5c0-0.3,0.2-1.3,0-1.7c-0.5-0.5-2.2-1-2.7-1.2c-1-0.3-1.8-0.8-2.8-1.2
		c-0.3-0.2-1.5-0.3-1.7-0.7c-0.2-0.2-0.2-1.7,0-1.8c0.2-0.2,0.2,0,0.3-0.2c0.8-0.5,2.3-0.3,3.2-0.5c6.8-1.2,13.8-2.7,20.8-3.7
		c0.8-0.2,1.7-0.2,2.5,0s0.5-0.2,0.7,0.7c0.3,1.7,0,4,0,5.8v47.8c0,0.5-0.2,1.3,0,2c0.2,0.5,0,0.3,0.8,0.7c1.7,0.7,3.5,1.5,5.1,2.2
		c0.5,0.2,0.7,0.2,0.8,0.5c0.2,0.3,0.2,1.5,0,1.5c-0.3,0.3-2,0.2-2.3,0.3c-3.7,0.5-7.3,0.8-11.1,1.3c-3.3,0.3-6.6,0.8-9.8,1.2
		c-0.7,0.2-1.3,0.2-2,0c-0.3,0-1.3,0-1.5-0.2c-0.2-0.3,0-1.7,0-2v-2.8c0-0.5,0.3-1.8,0-2.3c-0.3-0.5-1,0.2-1.5,0.5
		c-1.3,1.2-2.8,2.3-4.3,3.2c-5.5,3.3-12.3,4.8-18.6,3.5c-4.6-1-8.6-3.7-10.6-8.1c-1.5-3.2-1.8-6.6-1.8-10v-19.8v-11.3v-3.8
		c0-0.3,0.2-1.3,0-1.7c-0.3-0.5-2.3-1-2.8-1.3C84.3,108.7,83,108.2,81.6,107.5z M238.2,101.2c0.3,0,1.8,0,2,0.3c0.2,0.2,0,1.3,0,1.5
		v14.6c0,0.5-0.2,1.3,0,1.8v0.3c0.7,0.7,0.8-1.5,1-1.7c1.5-6.1,4.3-13.3,10.6-15.8c1.2-0.5,2.3-0.7,3.5-0.8c1,0,3.8-0.3,4.3,0.5
		c0.2,0.3,0,1.2,0,1.5v16.9c-4-0.8-8.5-0.7-12.3,0.2c-1.8,0.3-3.5,0.8-5.1,1.7c-0.8,0.3-1,0.2-1.2,0.8c-0.2,0.7,0,1.8,0,2.5v32.1
		c0,0.3-0.2,0.8,0,1.2c0.3,0.5,1.5,0.8,2,1c0.8,0.5,1.8,1,2.7,1.5c0.3,0.2,0.8,0.3,1,0.7c0.2,0.2,0.2,2.2,0,2.3
		c-0.2,0.2-1.2,0-1.5,0h-27.6c-0.8,0-2.3,0.3-3,0h-0.5c-0.2-0.2,0-2,0-2.2c0.3-1,2.5-1.7,3.5-2.2c0.7-0.3,2-0.8,2.3-1.5
		c0.2-0.3,0-1.3,0-1.7v-3.5v-42.7c0-0.2,0.2-1,0-1.2s-1-0.3-1.3-0.3c-1-0.3-2-0.7-3-0.8c-1-0.3-3.5-0.5-2.7-2.2
		c0.2-0.5,0.8-0.3,1.5-0.5c7.3-1.3,14.4-2.7,21.8-4C236.9,101.4,237.6,101.4,238.2,101.2L238.2,101.2z M300.8,102.7V89.4v-3.8
		c0-0.5,0.2-1.5,0-2c-0.2-0.3-0.8-0.5-1.3-0.7c-1.3-0.5-2.7-1-4.2-1.5c-1-0.3-1.5-0.2-1.5-1.3c0-1-0.2-0.7,0.7-0.8
		c1.8-0.7,4-0.7,5.8-1c5.5-1,10.8-2,16.3-3c1.2-0.2,2.3-0.5,3.5-0.3c1.3,0.2,1.5-0.2,1.5,1c0.2,2.7,0,5.5,0,8.1v72.7
		c0,0.7-0.2,0.7,0.3,1c1,0.7,2.7,1,3.7,1.3c0.7,0.2,2.5,0.5,2.8,1c0.2,0.2,0.2,2,0,2.2c-0.2,0.2-1.2,0.2-1.3,0.2
		c-2.3,0.3-4.5,0.7-6.8,0.8c-5.1,0.7-10.3,1.3-15.6,2c-0.8,0.2-2.8,0.5-3.2-0.2c-0.3-0.7,0-2.8,0-3.5c0-0.5,0.3-2.7,0-3
		c-0.3-0.3-4,3-4.5,3.3c-2,1.3-4.2,2.3-6.5,3c-3.7,1-7.8,1-11.5,0.2c-15.9-3.7-19.3-22.6-17.9-36.4c0.7-7.3,3-14.6,8-19.9
		c4.6-4.8,11-7.3,17.4-7.8C291.5,100.5,296.4,100.9,300.8,102.7L300.8,102.7z M300.8,155.7v-40.9v-7.6c0-1-0.2-1.2-1.3-1.8
		c-2.3-1.3-5.3-1.8-7.8-0.8c-3.8,1.5-5.6,6-6.6,9.6c-2,6.6-2.2,13.8-2,20.8c0.2,6,0.3,13.3,3.7,18.6
		C289.7,158.2,296.5,159.3,300.8,155.7z M355.8,101.2c0.8,0.2,1.8-0.2,2.2,0.7c0.2,0.5,0,1.7,0,2.2v52c0,0.7-0.2,1.7,0,2.3
		c0.2,0.7,0.8,0.8,1.5,1.2c1,0.5,1.8,1,2.8,1.5c0.3,0.2,1.3,0.5,1.5,1c0,0.2,0.2,2.2,0,2.3h-0.5c-1,0.2-2.3,0-3.5,0h-25.2
		c-0.7,0-2.5,0.3-3,0c-0.3-0.2-0.5-2.2-0.2-2.5c0.3-0.5,1.5-0.8,2-1c1-0.5,2-1.2,3-1.7c0.8-0.5,0.7-0.3,0.7-1c0.3-2.5,0-5.3,0-7.8
		v-13.1v-23.9c0-0.7,0.2-1.8,0-2.5s-1-0.7-1.7-1c-1.2-0.5-2.2-0.8-3.3-1.3c-0.3-0.2-1.7-0.3-2-0.8c-0.2-0.2-0.2-1.8,0-2
		c0.2-0.2,0.5,0,0.7-0.2c1.3-0.5,2.8-0.5,4.3-0.8c2.2-0.3,4.2-0.8,6.3-1.2c4.2-0.7,8.1-1.5,12.3-2.2
		C354.5,101.5,355.1,101.4,355.8,101.2L355.8,101.2z M358.1,85.7c-0.3,10-13.8,14.3-19.9,6.5c-2.8-3.7-3-8.6-0.5-12.5
		c2.5-3.8,7.3-5.5,11.8-4.5C354.5,76.3,358.1,80.6,358.1,85.7z M430.9,158.7v-40V111c0-0.2,0.2-1,0-1.2c-0.2-0.3-1.2-0.5-1.5-0.5
		l-3-1c-0.5-0.2-1.8-0.3-2.2-0.8c-0.3-0.3-0.2-1.2-0.2-1.7c0-1,0.3-0.8,1.3-1l11-2l11-2c0.7-0.2,1.2-0.3,1.8-0.3c0.3,0,2,0,2.3,0.2
		c0.2,0.2,0,1.2,0,1.5v3.2c0,0.5-0.3,2,0,2.5c0.3,0.7,1,0,1.5-0.5c1.5-1.2,3-2.2,4.6-3c6-3.3,13.1-4.8,19.9-3.8
		c4.6,0.7,8.5,3.2,10.1,7.6c1.2,3.2,1.3,6.5,1.3,9.8v37.9c0,0.7-0.2,1.8,0,2.5c0.2,0.7,0.7,0.8,1.5,1.2c0.8,0.5,1.8,1,2.7,1.5
		c0.3,0.2,1.5,0.5,1.7,1c0.2,0.3,0.2,2,0,2.2c-0.2,0.3,0.2,0-0.3,0.2c-0.7,0.3-2.2,0-3,0h-23.7c-1,0-4.8,0.5-5.3-0.2
		c-0.2-0.2-0.2-2,0-2.3c0.2-0.3,1.2-0.7,1.5-0.8c1-0.5,1.8-1,2.8-1.5c0.3-0.2,1.3-0.5,1.5-0.8c0.2-0.3,0-1,0-1.3v-3.7V142v-22.4
		c0-2.7,0.2-5.6-1.5-8c-1.3-2-3.7-2.5-6-2.7c-1.8,0-3.5,0.2-5.1,0.7c-0.8,0.3-3.3,1-3.8,2c-0.2,0.3,0,1,0,1.3v43
		c0,0.5-0.2,1.7,0,2.2c0.2,0.7,1.2,0.8,1.7,1.2c0.8,0.5,1.8,1,2.7,1.5c0.3,0.2,1,0.5,1.2,0.7c0.2,0.2,0.2,2.2,0,2.3
		c0,0.2-0.2,0-0.3,0c-0.7,0.3-2.3,0-3,0h-27.9c-0.8,0-1,0.2-1.2-0.3c-0.2-0.3-0.2-1.8,0-2.2c0.2-0.3,1.2-0.7,1.5-0.8
		C428,160.3,429.4,159.5,430.9,158.7z M395.7,128.1c0-4.3,0.2-8.8-0.2-13.3c-0.5-4.8-1.8-10.1-7.3-11.1c-1.7-0.3-4.6-0.8-5.8,0.5
		c-1.2,1.2-2,2.8-3,4.2l-8.5,11.5c-0.5,0.7-1,2-1.7,2.3c-0.2,0.2-1.8,0.2-1.8,0c-0.2-0.2,0-1.3,0-1.7V107c0-0.5-0.2-1.3,0-1.8
		c0.3-0.8,4-1.3,4.8-1.7c4.6-1.2,9.5-2,14.3-2.3c6.8-0.5,14.4-0.3,20.8,2.7c5,2.3,8.1,6.5,9,11.8c0.5,2.7,0.3,5.6,0.3,8.3v33.2
		c0,0.5-0.3,1.8,0,2.2c0.2,0.2,1,0.3,1.2,0.3c1.3,0.3,2.5,0.7,3.8,1c0.8,0.2,1,0.2,1,1s0.2,0.8-0.8,1.2c-1.2,0.5-2.3,1-3.5,1.3
		c-6.1,1.8-15.8,2.3-20.3-3.3c-0.3-0.5-1.3-2.7-1.8-2.8c-0.7-0.2-2.7,2.5-3.3,3c-2.7,2.3-6.1,3.7-9.6,4.2
		c-6.5,0.8-13.5-0.5-17.4-6.1c-3.3-4.8-4-12.3-1.5-17.6c4.5-10.1,17.8-11.1,27.4-12.8C392.8,128.6,394.2,128.3,395.7,128.1
		L395.7,128.1z M395.7,155.7v-24.6c-5,0.3-10.1,0.7-12,6.1c-1.3,3.7-1.3,8-0.8,11.8c0.3,2.7,1,6,3.5,7.6
		C389,158.5,393.5,158.2,395.7,155.7L395.7,155.7z M185.4,128.1c0-4.3,0.2-8.8-0.2-13.3c-0.5-4.8-1.8-10.1-7.3-11.1
		c-1.7-0.3-4.6-0.8-5.8,0.5c-1.2,1.2-2,2.8-3,4.2l-8.5,11.5c-0.5,0.7-1,2-1.7,2.3c-0.2,0.2-1.8,0.2-1.8,0c-0.2-0.2,0-1.3,0-1.7
		v-13.3c0-0.5-0.2-1.3,0-1.8c0.3-0.8,3.8-1.3,4.8-1.7c4.6-1.2,9.5-2,14.1-2.3c6.8-0.5,14.4-0.3,20.8,2.7c5,2.3,8.1,6.5,9,11.8
		c0.5,2.7,0.3,5.6,0.3,8.3v33.2c0,0.5-0.3,1.8,0,2.2c0.2,0.2,1,0.3,1.2,0.3c1.3,0.3,2.5,0.7,3.8,1c0.8,0.2,1,0.2,1,1
		s0.2,0.8-0.8,1.2c-1.2,0.5-2.3,1-3.5,1.3c-6.1,1.8-15.8,2.3-20.3-3.3c-0.3-0.5-1.3-2.7-1.8-2.8c-0.7-0.2-2.7,2.5-3.2,3
		c-2.7,2.3-6.1,3.7-9.6,4.2c-6.5,0.8-13.5-0.5-17.4-6.1c-3.3-4.8-4-12.3-1.5-17.6c4.5-10.1,17.8-11.1,27.2-12.8
		C182.6,128.6,183.9,128.3,185.4,128.1z M185.4,155.7v-24.6c-5,0.3-10.1,0.7-12,6.1c-1.3,3.7-1.3,8-0.8,11.8c0.3,2.7,1,6,3.5,7.6
		C178.8,158.5,183.3,158.2,185.4,155.7z"/>
</g>
</svg>
