<?xml version="1.0" encoding="utf-8"?>
<!-- Generator: Adobe Illustrator 27.0.0, SVG Export Plug-In . SVG Version: 6.00 Build 0)  -->
<svg version="1.1" id="Layer_1" xmlns="http://www.w3.org/2000/svg" xmlns:xlink="http://www.w3.org/1999/xlink" x="0px" y="0px"
	 viewBox="0 0 950.7 600.3" style="enable-background:new 0 0 950.7 600.3;" xml:space="preserve">
<style type="text/css">
	.st0{fill:#1A1A1A;}
	.st1{clip-path:url(#SVGID_00000147937846830137097690000010838495240890962824_);fill:#FFFFFF;}
	.st2{clip-path:url(#SVGID_00000147937846830137097690000010838495240890962824_);}
</style>
<path class="st0" d="M36.7,38.7v253.2v16.7v253.2H914V308.5v-16.7V38.7H36.7z M53.4,55.4h843.9v236.4H53.4V55.4z"/>
<g>
	<defs>
		<rect id="SVGID_1_" width="950.7" height="600.3"/>
	</defs>
	<clipPath id="SVGID_00000079447919858123849880000004187792707894982330_">
		<use xlink:href="#SVGID_1_"  style="overflow:visible;"/>
	</clipPath>
	<path style="clip-path:url(#SVGID_00000079447919858123849880000004187792707894982330_);fill:#FFFFFF;" d="M680.3,464.2l-0.1,0.2
		c0.7,2,0.4,0.5,1,2.4c0,0.8,1.1,3.1,1.2,3.8c0,0,0.3,0.9,0.4,0.8c0,0.3,0.3,1,0.5,1.5c0,0.2-0.1-0.1-0.2-0.3l0.4,1.3
		c0.2,0.5,0.3,0.6,0.2,0c0.8,2.1,2.6,7.1,4.6,12.6c-7.7,0-15.6,0-19.1,0c0.5-0.1,1.7,0,2.2-0.2c-1-0.1-0.1-3.5-0.6-3.6
		c-0.4,0.2-3.7,3.6-4.5,3.8l-0.3-0.1l-0.5,0.1c-4.6-0.1-1.1-0.1-5.1,0c-2.4,0-3.5-0.2-4.8-0.1c0.2,0,0.7-0.1,0.1-0.1
		c-0.1,0.1-1.6-0.1-1.9,0c-0.6,0,4.9-12.4,4.8-13.2c-0.3,0.1-8.7,13.2-7.7,13.2c-0.4,0-0.4,0-1.6,0l0.8,0c-2,0-3,0.1-4.3,0l0.7-0.1
		c-1.2,0-2.2,0-2.6,0.1l1.8,0.6c-2.1,0-3.6-0.6-8-0.6l2.8-1.4c-0.7,0-3.2,1.4-4,1.3c1.1-2.9,2.4-6.4,3.8-9.9c1-2.6,1.9-4.9,2.3-5.6
		l-0.2,0.9l1.9-2.6c-0.1,0.2-1.7,1.1-1.7,1.2c1.2-3.3,6.6-18.6,8.2-23c0.4-1.3-0.1-0.3-0.1-0.3c0.6-1.5,0.4-0.6,0.8-1.9
		c0.1-0.4-0.1,0-0.2,0.2c0.2-0.6,0.4-1.1,0.4-1.1c-0.2,0.7,5.5-1.4,3.1-1.4l-2.5,0.5l-0.1,0c0.1-0.4,0.6-0.8,1.1-2.5
		c1.1-3.2,2-5.6,3-8.5c-0.1,0-0.3,0.6-0.5,1.2c0.1-0.4,0.3-0.9,0.4-1.3c-0.1,0.7,0.5-1.1,0.3-0.6c0.9-1.9,1.7-4.6,2.5-6.3
		c0.3-0.1,3.6-2.2,3.1-0.7c0,0.1-3.1-0.8-2.7-1.8c-0.3,0.9,4.3,2.4,3.8,2.4c-1.7-0.1-2.4-2.2-2.4-2.2l-0.1-0.3c0,0,1.9-4.7,4.2-0.4
		l0.1-0.1l0.3,0.9c0.4,1.1,0.3,0.5,0.6,1.1c0,0.2-0.1,2.2,0.2,2.9c0.4,1.1,0.5-1,1,0.2c2.5,6.9,5,13.6,7.3,20.1
		c0.1,0.1-5.2,6.8-5.2,6.6c0.8,2.4,6.4-3.4,7.2-1.1c0.2,0.5,0.3,0.6,0.4,0.8c-0.1-0.1,0,3.4,1,6.1
		C678.5,462.3,680.1,463.7,680.3,464.2"/>
	<path style="clip-path:url(#SVGID_00000079447919858123849880000004187792707894982330_);fill:#FFFFFF;" d="M749.7,480.6l-0.9,0.3
		c0.7,2,1.2,0.4,1.8,2.3c0,0.8,1.1,3.1,1.2,3.8c0,0,0.3,0.9,0.4,0.8c0,0.3,0.3,1,0.5,1.5c0,0.2-20.7-2.6-21.4-1.8l21.1,4.4
		c0.2,0.5,1.8,1.4,1.6,0.8c0.8,2.1,1.8,4.8,3.8,10.3c-7.7,0-16.9,0.5-20.4,0.5c0.5-0.1,3-0.5,3.5-0.7c-1-0.1-1.6,0.6-2.1,0.5
		c-0.4,0.2-2.2-0.5-3-0.2l-0.3-0.1l-0.5,0.1c-4.6-0.1-1.1-0.1-5.1,0c-2.4,0-3.5-0.2-4.8-0.1c0.2,0,0.7-0.1,0.1-0.1
		c-0.1,0.1-1.6-0.1-1.9,0c-0.6,0-2.5,0-1.9-0.2c-0.3,0.1-2.1,0.1-1,0.2c-0.4,0-0.4,0-1.6,0l0.7,0c-2,0-3,0.1-4.3,0l0.7-0.1
		c-1.2,0-2.2,0-2.6,0.1l1.3,0.7c-2.1,0-3.2-0.7-7.5-0.7l1.1,0c-0.8,0-1.5,0-2.3-0.1c1.1-2.9,3.5-5.8,4.8-9.3c1-2.6,0.9-5.5,1.2-6.3
		l-0.2,0.9l0.7-1.5c-0.1,0.2-0.6,0.6-0.7,0.8c1.2-3.3,6.9-19.2,8.5-23.7c0.4-1.3-0.1-0.3-0.1-0.3c0.6-1.5,0.4-0.6,0.8-1.9
		c0.1-0.4-0.1,0-0.2,0.2c0.2-0.6,0.4-2.8,0.5-2.8c-0.2,0.7,0.5,3.5,0.5,3.8l0-3l-0.1,0c0.1-0.4,3.4,3.4,3.9,1.8
		c1.1-3.2-0.8-9.8,0.2-12.7c-0.1,0-0.8,2-1,2.6c0.1-0.4,0.8-2.4,0.9-2.7c-0.1,0.7,0.5-1.1,0.3-0.6c0.9-1.9,1.7-4.6,2.5-6.3
		c0.3-0.1,2-1.2,2-1.2l-0.2-1.4c0,0,1.9-4.7,4.2-0.4l0.1-0.1l0.3,0.9c0.4,1.1,0.5,1.6,0.6,1.5l-0.5-1.5c0.4,1.1,0.2,0.3,0.1-0.1
		c0.1,0.3,0.2,0.6,0.5,1.2c0,0.2-0.1-0.1-0.2-0.3c0.2,0.6,0.4,1.4,0.7,2.1c0.4,1.1,0.2,0,0.6,1.3c2.5,6.9,5,13.6,7.3,20.1
		c0.1,0.1,0,0,0-0.2c0.8,2.4,0.4,3.4,1.2,5.7c0.2,0.5,1.1,0.7,1.2,0.8c-0.1-0.1,0.8,2.5,1.7,5.1
		C748.7,477.8,749.5,480.2,749.7,480.6"/>
	<path style="clip-path:url(#SVGID_00000079447919858123849880000004187792707894982330_);fill:#FFFFFF;" d="M821.9,464.5l-0.1,0.2
		c0.7,2-2.7-0.6-0.3,2.2c0,0.8,2.4,3.3,2.5,4c0,0,0.3,0.9,0.4,0.8c0,0.3,0.3,1,0.5,1.5c0,0.2-0.1-0.1-0.2-0.3l0.4,1.3
		c0.2,0.5,0.3,0.6,0.2,0c0.8,2.1,2.6,7.1,4.6,12.6c-7.7,0-15.7,0-19.1,0c0.5-0.1-0.4-5.8,0.1-5.9c-2.6-0.9-3,1.8-3.5,1.7
		c-0.4,0.2,1.3,4,0.5,4.2l-0.3-0.1l-0.5,0.1c-4.6-0.1-0.9-1-4.9-0.9c-2.4,0-3.7,0.7-5,0.7c0.2,0,0.7-0.1,0.1-0.1
		c-0.1,0.1-1.6-0.1-1.9,0c-0.6,0-3.7-1.6-3-1.7c-0.3,0.1-0.9,1.7,0.1,1.7c-0.4,0-0.4,0-1.6,0l0.8,0c-2,0-3,0.1-4.3,0l0.7-0.1
		c-1.2,0-2.2,0-2.6,0.1l2.5,0.2c-2.1,0-4.3-0.2-8.6-0.3l1.1,0c-0.8,0-1.5,0-2.3-0.1c1.1-2.9,2.4-6.4,3.8-9.9c1-2.6,1.9-4.9,2.3-5.6
		l4.3,5l-2.9-6.6c-0.1,0.2,1.1,0.1,1.1,0.3c1.9-3.6,4.3-17.7,5.9-22.1c0.4-1.3,6.9,5.1,6.9,5.1c2.7-3.2-6.7-6-6.2-7.3
		c0.1-0.4-0.1,0-0.2,0.2c0.2-0.6,0.4-1.1,0.4-1.1c-0.2,0.7,0,0.5,0,0.8l0.6-1.7l-0.1,0c0.1-0.4,0.6-0.8,1.1-2.5c1.1-3.2,2-5.6,3-8.5
		c-0.1,0-0.3,0.6-0.5,1.2c0.1-0.4,0.3-0.9,0.4-1.3c-0.1,0.7,1.5-0.2,1.3,0.4c0.9-1.9,0.7-5.6,1.4-7.3c0.3-0.1,4.8-2.6,5.1-2.5
		c0.1-0.4,0.2-0.7,0.4-1.3c0,0.2-0.4,1.3-0.6,1.8l-0.2,0.1c-0.5,1.3,0,0.3-0.5,1.6c0.1,0.1,0.5-1.1,0.9-2.1c-0.3,1-0.6,1.9-0.8,2.3
		c-0.3,0.9,0.2-0.1-0.2,1c-0.3,0.7-2.1,1.9-3.2-1.6l0.9-1.7l-0.1-0.3c0,0,1.9-4.7,4.2-0.4l0.1-0.1l0.3,0.9c0.4,1,0.5,1.6,0.6,1.5
		l-0.5-1.5c0.4,1.1,0.2,0.3,0.1-0.1c0.1,0.3,0.2,0.6,0.5,1.2c0,0.2-0.1-0.1-0.2-0.3c0.2,0.6,0.4,1.4,0.7,2.1c0.4,1.1,0.2,0,0.6,1.3
		c2.5,6.9,5,13.6,7.3,20.1c0.1,0.1,0,0,0-0.2c0.8,2.4,1.2,3.5,2,5.8c0.2,0.5-1.7,3.3-1.6,3.4c-0.1-0.1,2.9-0.2,3.8,2.5
		C820.9,461.6,821.8,464,821.9,464.5"/>
	<path style="clip-path:url(#SVGID_00000079447919858123849880000004187792707894982330_);fill:#FFFFFF;" d="M775.3,394.4l-0.1,0.2
		c0.7,2,0.4,0.5,1,2.4c0,0.8,1.1,3.1,1.2,3.8c0,0,0.3,0.9,0.4,0.8c0,0.3,0.3,1,0.5,1.5c0,0.2-0.1-0.1-0.2-0.3l0.4,1.3
		c0.2,0.5-0.5,1.6-0.7,1c0.8,2.1,3.4,6.2,5.4,11.7c-7.7,0-15.7,0.6-19.1,0.6c0.5-0.1,1.8-0.6,2.2-0.7c-1-0.1-1.5,0-2-0.1
		c-0.4,0.2-2.3,0.1-3.1,0.3l-0.3-0.1l-0.5,0.1c-4.6-0.1,0.4-4.8-2.6-4.7c-2.4,0-6,4.4-7.3,4.5c0.1,0,0.7-0.1,0.1-0.1
		c-0.2,0,2.6-4.4-1.9,0c-0.6,0-2.8-0.9-2.2-1.1c-0.3,0.1-1.8,1-0.8,1.1c-0.4,0-0.4,0-1.6,0l0.8,0c-2,0-3,0.1-4.3,0l0.7-0.1
		c-1.2,0-2.2,0-2.6,0.1l1.2,0c-2.1,0-3.2,0-7.5,0l1.2-0.1c-0.8,0-1.5,0-2.3-0.1c1.1-2.9,2.4-6.4,3.8-9.9c1-2.6,2.9-7.1,3.2-7.8
		l-1.1,3.1l0.8-1.4c0.1,0.3,1.2-0.4,1.2-0.3c1.2-3.3,4.9-18.3,6.5-22.7c0.4-1.3,11.1,6.2,11.1,6.2c0.6-1.5-10.9-7.1-10.4-8.4
		c0.1-0.4-1.6,2.1-1.7,2.3c0.2-0.6,1.9-3.2,1.9-3.2c-0.2,0.7,0,0.5,0,0.8l0.6-1.7l-0.1,0c0.1-0.4,0.6-0.8,1.1-2.5
		c1.1-3.2,2-5.6,3-8.5c-0.1,0-0.3,0.6-0.5,1.2c0.1-0.4,0.3-0.9,0.4-1.3c-0.1,0.7,0.5-1.1,0.3-0.6c0.9-1.9,1.7-4.6,2.5-6.3
		c0.3-0.1,2.2-1.5,2.4-1.4c0.1-0.4,1.2-0.4,1.2-0.5c-0.4,0.9-1.7-0.5-1.7-0.5l1.2-0.1c0,0,0.5-4.9,2.8-0.6l0.1-0.1
		c0,0,0.8,2.5,0.9,2.4l-0.5-1.5c0.4,1.1,0.2,0.4,0.1,0c0.1,0.3,0.2,0.6,0.5,1.2c0,0.2-0.1-0.1-0.2-0.3c0.2,0.6,0.4,1.4,0.7,2.1
		c0.4,1.1,0.2,0,0.6,1.3c2.5,6.9,5,13.6,7.3,20.1c0.1,0.1,0-0.3-0.1-0.5c0.8,2.4,1.2,3.7,2,6c0.2,0.5,0.3,0.6,0.4,0.8
		c-0.1-0.1-3.8,3.3,1.7,5.1C774.3,391.5,775.2,393.9,775.3,394.4"/>
	<path style="clip-path:url(#SVGID_00000079447919858123849880000004187792707894982330_);fill:#FFFFFF;" d="M697.3,385.9l-0.1,0.2
		c0.7,2-12.4,1.4,0.1,3.1c0,0.8,2.1,2.4,2.2,3.1c0,0,0.3,0.9,0.4,0.8c0,0.3,0.6,1.1,0.7,1.7c0,0.2-0.3-0.3-0.4-0.5l0.4,1.3
		c0.2,0.5,0.4,0.3,0.2-0.2c0.8,2.1,2.6,7.4,4.6,12.9c-7.7,0-13.9,0-17.4,0c0.5-0.1,0.6-1.4,1.1-1.6c-1-0.1-2.5,0.6-2.9,0.5
		c-0.4,0.2-2,0.9-2.8,1.2l-0.3-0.1l-0.5,0.1c-4.6-0.1-1.1-0.1-5.1,0c-2.4,0-3.5-0.2-4.8-0.1c0.2,0,0.7-0.1,0.1-0.1
		c-0.1,0.1-1.6-0.1-1.9,0c-0.6,0-2.5,0-1.9-0.2c-0.3,0.1-2.1,0.1-1,0.2c-0.4,0-0.4,0-1.6,0c0,0-2.3,0.1-3.6-0.1l0.7-0.1
		c-1.2,0-2.2,0-2.6,0.1l1.2,0c-2.1,0-3.1,0-7.4-0.1c0,0-0.4,0-1.2-0.1c1.1-2.9,2.4-6.4,3.8-9.9c1-2.6-1.2-4.7,2.3-5.6l6.9,4.9
		l-4.5-7.6c-0.1,2-2.3,1.4-2.3,1.6c1.2-3.3,6.5-17.9,8.1-22.4c0.4-1.3-0.4-0.2-0.4-0.2c0.6-1.5,2.9-1.3,1.1-2
		c0.1-0.4-0.2,0.2-0.2,0.4c-0.1-0.6,0.3-1.2,0.4-1.3c-0.2,0.7,0,0.5,0,0.8l0.6-1.7l3.4,2.7c0.1-0.4-2.9-3.5-2.4-5.1
		c1.1-3.2,2-5.6,3-8.5c-0.1,0,0,0.6-0.2,1.2c0.1-0.4,3.1,4.6,3.1,4.2c-0.1,0.7-2.6-6.7-2.7-6.1c0.9-1.9,1.7-4.6,2.5-6.3
		c0.3-0.1,3.3,0.6,0.4-0.6l1.4-1.7c0,0,1.8-5,4.1-0.7l0.1-0.1l0.3,0.9c0.4,1,0,0,0,0c0.4,1.1,0.2,0.3,0.1-0.1
		c0.1,0.3,0.2,0.6,0.5,1.2c0,0.2-0.1-0.1-0.2-0.3c0.2,0.6-0.8,1.5-0.5,2.2c0.4,1.1,0.3,0.5,1.8,1.2c2.5,6.9,5,13.6,7.3,20.1
		c0.1,0.1,0,0,0-0.2c0.8,2.4,1.2,3.5,2,5.8c0.2,0.5,0.3,0.6,0.4,0.8c-0.1-0.1,0.8,2.5,1.7,5.1C696.3,383.1,697.1,385.5,697.3,385.9"
		/>
	<polygon style="clip-path:url(#SVGID_00000079447919858123849880000004187792707894982330_);" points="125.6,215 138.1,215 
		138.1,137.2 123.4,137.2 123.4,152.8 97.5,152.8 97.5,116.1 207.2,116.1 207.2,152.8 181.1,152.8 181.1,137.2 164.5,137.2 
		164.5,215 177.2,215 177.2,236.8 125.6,236.8 	"/>
	<path style="clip-path:url(#SVGID_00000079447919858123849880000004187792707894982330_);" d="M234.9,116.1h63.8
		c6.2,0,11.7,0.9,16.6,2.8c4.9,1.9,9,4.3,12.3,7.4c3.3,3.1,5.9,6.7,7.7,10.8c1.8,4.1,2.7,8.4,2.7,12.8c0,4.1-0.4,7.7-1.3,10.7
		c-0.9,3.1-2.1,5.8-3.8,8.2c-1.7,2.4-3.7,4.5-6.2,6.3c-2.4,1.8-5.2,3.5-8.4,5c2.7,1.4,5.1,3.5,7.2,6.3c2.1,2.8,3.6,6.5,4.7,11
		l4.1,15.7h9.9l0.2,23.5h-35l-4.8-28.6c-0.5-3.4-1.2-6.3-2.2-8.8c-1-2.5-2.3-4.5-3.9-6c-1.6-1.6-3.6-2.7-6-3.5
		c-2.4-0.7-5.2-1.1-8.4-1.1h-10.3V215h11.1v21.8h-50V215h12.5V138h-12.5V116.1z M273.8,138v29.2h15.8c3,0,5.7-0.3,8.2-0.8
		c2.4-0.6,4.5-1.4,6.2-2.6c1.7-1.2,3.1-2.7,4-4.5c0.9-1.8,1.4-3.9,1.4-6.4c0-4.7-1.7-8.3-5-10.9c-3.3-2.6-8.2-3.9-14.7-3.9H273.8z"
		/>
	<polygon style="clip-path:url(#SVGID_00000079447919858123849880000004187792707894982330_);" points="373,116.1 424.6,116.1 
		424.6,137.9 411.9,137.9 411.9,215 424.6,215 424.6,236.8 373,236.8 373,215 385.4,215 385.4,137.9 373,137.9 	"/>
	<path style="clip-path:url(#SVGID_00000079447919858123849880000004187792707894982330_);" d="M453.7,116.1h55.7
		c6.2,0,11.9,1,17.1,2.9c5.2,1.9,9.7,4.5,13.4,7.8c3.8,3.3,6.7,7.1,8.8,11.4c2.1,4.3,3.2,8.8,3.2,13.4c0,5.6-0.8,10.9-2.5,15.8
		c-1.7,4.9-4.3,9.2-7.8,12.8c-3.5,3.6-7.9,6.5-13.3,8.6s-11.7,3.1-19,3.1h-16.8v23h11.1v21.8h-50V215h12.5V138h-12.5V116.1z
		 M492.6,138v32.4h10.9c6,0,10.8-1.3,14.4-3.8c3.6-2.5,5.3-6.6,5.3-12.1c0-5.1-1.7-9.2-5-12.1c-3.3-2.9-8.2-4.4-14.7-4.4H492.6z"/>
	<polygon style="clip-path:url(#SVGID_00000079447919858123849880000004187792707894982330_);fill:#FFFFFF;" points="125.6,470.9 
		138.1,470.9 138.1,393.1 123.4,393.1 123.4,408.7 97.5,408.7 97.5,372 207.2,372 207.2,408.7 181.1,408.7 181.1,393.1 164.5,393.1 
		164.5,470.9 177.2,470.9 177.2,492.7 125.6,492.7 	"/>
	<path style="clip-path:url(#SVGID_00000079447919858123849880000004187792707894982330_);fill:#FFFFFF;" d="M234.9,372h63.8
		c6.2,0,11.7,0.9,16.6,2.8c4.9,1.9,9,4.3,12.3,7.4c3.3,3.1,5.9,6.7,7.7,10.8c1.8,4.1,2.7,8.4,2.7,12.8c0,4.1-0.4,7.7-1.3,10.7
		c-0.9,3.1-2.1,5.8-3.8,8.2c-1.7,2.4-3.7,4.5-6.2,6.3c-2.4,1.8-5.2,3.5-8.4,5c2.7,1.4,5.1,3.5,7.2,6.3c2.1,2.8,3.6,6.5,4.7,11
		l4.1,15.7h9.9l0.2,23.5h-35l-4.8-28.6c-0.5-3.4-1.2-6.3-2.2-8.8c-1-2.5-2.3-4.5-3.9-6c-1.6-1.6-3.6-2.7-6-3.5
		c-2.4-0.7-5.2-1.1-8.4-1.1h-10.3v26.3h11.1v21.8h-50v-21.8h12.5v-76.9h-12.5V372z M273.8,393.9v29.2h15.8c3,0,5.7-0.3,8.2-0.8
		c2.4-0.6,4.5-1.4,6.2-2.6c1.7-1.2,3.1-2.7,4-4.5c0.9-1.8,1.4-3.9,1.4-6.4c0-4.7-1.7-8.3-5-10.9c-3.3-2.6-8.2-3.9-14.7-3.9H273.8z"
		/>
	<polygon style="clip-path:url(#SVGID_00000079447919858123849880000004187792707894982330_);fill:#FFFFFF;" points="373,372 
		424.6,372 424.6,393.8 411.9,393.8 411.9,470.9 424.6,470.9 424.6,492.7 373,492.7 373,470.9 385.4,470.9 385.4,393.8 373,393.8 	
		"/>
	<path style="clip-path:url(#SVGID_00000079447919858123849880000004187792707894982330_);fill:#FFFFFF;" d="M453.7,372h55.7
		c6.2,0,11.9,1,17.1,2.9c5.2,1.9,9.7,4.5,13.4,7.8c3.8,3.3,6.7,7.1,8.8,11.4c2.1,4.3,3.2,8.8,3.2,13.4c0,5.6-0.8,10.9-2.5,15.8
		c-1.7,4.9-4.3,9.2-7.8,12.8c-3.5,3.6-7.9,6.5-13.3,8.6c-5.4,2.1-11.7,3.1-19,3.1h-16.8v23h11.1v21.8h-50v-21.8h12.5v-76.9h-12.5
		V372z M492.6,393.9v32.4h10.9c6,0,10.8-1.3,14.4-3.8c3.6-2.5,5.3-6.6,5.3-12.1c0-5.1-1.7-9.2-5-12.1c-3.3-2.9-8.2-4.4-14.7-4.4
		H492.6z"/>
	<path style="clip-path:url(#SVGID_00000079447919858123849880000004187792707894982330_);" d="M631.2,162.8h12.1v7.6h-12.1v36h8.2
		v8.7h-25.4v-8.7h7.9v-36h-8.6v-7.6h8.6v-8.2c0.1-3,0.5-5.7,1.3-7.9c0.8-2.3,2-4.1,3.4-5.6c1.5-1.5,3.3-2.6,5.3-3.4
		c2.1-0.7,4.4-1.1,7-1.1c1.8,0,3.4,0.1,4.8,0.3c1.4,0.2,2.7,0.4,3.8,0.7s2.1,0.6,3,0.9c0.9,0.3,1.6,0.7,2.3,1l-2.9,6.7
		c-1.1-0.6-2.5-1.1-4.2-1.5c-1.7-0.4-3.5-0.6-5.4-0.6c-2.8,0-5,0.9-6.6,2.6c-1.6,1.7-2.4,4.3-2.4,7.6V162.8z"/>
	<path style="clip-path:url(#SVGID_00000079447919858123849880000004187792707894982330_);" d="M654.9,188.9c0-4.1,0.7-7.9,2-11.3
		c1.3-3.4,3.1-6.3,5.4-8.7c2.3-2.4,5.1-4.3,8.3-5.6c3.2-1.3,6.7-2,10.5-2c3.9,0,7.4,0.7,10.6,2c3.2,1.3,6,3.2,8.2,5.6
		c2.3,2.4,4.1,5.3,5.3,8.7c1.3,3.4,1.9,7.2,1.9,11.3c0,4.1-0.6,7.8-1.9,11.2c-1.3,3.4-3.1,6.3-5.3,8.8c-2.3,2.5-5,4.4-8.2,5.7
		c-3.2,1.4-6.7,2-10.6,2c-3.9,0-7.5-0.7-10.7-2c-3.2-1.3-5.9-3.2-8.2-5.7c-2.3-2.4-4.1-5.4-5.3-8.7C655.6,196.8,655,193,654.9,188.9
		 M664.9,188.9c0,3,0.4,5.7,1.3,8.1c0.9,2.4,2,4.5,3.5,6.2c1.5,1.7,3.2,3,5.2,3.9c2,0.9,4.1,1.4,6.3,1.4c2.3,0,4.5-0.5,6.5-1.4
		c2-0.9,3.7-2.2,5.2-3.9c1.5-1.7,2.6-3.8,3.5-6.2c0.8-2.4,1.3-5.1,1.3-8.2c0-3.2-0.4-6-1.3-8.4c-0.8-2.5-2-4.5-3.5-6.1
		c-1.5-1.6-3.2-2.9-5.2-3.7c-2-0.8-4.2-1.3-6.5-1.3c-2.2,0-4.3,0.4-6.3,1.3c-2,0.8-3.7,2.1-5.2,3.7c-1.5,1.6-2.7,3.7-3.5,6.1
		C665.3,183,664.9,185.8,664.9,188.9"/>
	<path style="clip-path:url(#SVGID_00000079447919858123849880000004187792707894982330_);" d="M759.1,173.8h-9.6v-3.2
		c-1.1,0-2.2,0.2-3.4,0.6c-1.2,0.4-2.2,1.1-3.3,1.9c-1,0.9-1.9,2-2.6,3.3c-0.8,1.3-1.3,2.9-1.6,4.7v25.2h8.9v8.7h-25.9v-8.7h7.2
		l0.1-34.9h-7.3v-8.7h16.7v7.2c0.6-1.1,1.3-2.1,2-3c0.8-0.9,1.6-1.7,2.5-2.4c0.9-0.7,2-1.2,3.1-1.6c1.1-0.4,2.3-0.6,3.7-0.6h4.9
		c1.5,0,3.1,0,4.6,0.1V173.8z"/>
	<path style="clip-path:url(#SVGID_00000079447919858123849880000004187792707894982330_);" d="M831.5,210.2c-2,1.9-4.2,3.4-6.6,4.5
		c-2.4,1.2-5.1,1.8-8.2,1.8c-2.6,0-4.9-0.4-7-1.2c-2.1-0.8-4-1.9-5.5-3.3c-1.5-1.4-2.7-3-3.6-4.9c-0.9-1.8-1.3-3.8-1.3-5.9
		c0-2.2,0.3-4.2,1-5.9c0.7-1.7,1.5-3.2,2.6-4.5c1.1-1.3,2.4-2.3,3.8-3.2c1.5-0.9,3-1.5,4.6-2.1c1.6-0.5,3.2-0.9,4.9-1.1
		c1.7-0.2,3.3-0.3,4.8-0.3c2.4,0,4.5,0.1,6.1,0.2c1.6,0.2,3.1,0.4,4.5,0.6l0.1-4.3c0-1.8-0.3-3.5-0.8-4.8c-0.5-1.4-1.3-2.5-2.3-3.4
		c-1-0.9-2.1-1.6-3.5-2c-1.4-0.4-2.9-0.7-4.6-0.7c-1.6,0-3.1,0.1-4.5,0.3c-1.4,0.2-2.8,0.5-4.1,0.9c-1.3,0.4-2.4,0.8-3.5,1.2
		c-1.1,0.5-2,0.9-2.7,1.4l-3.1-6.5c1.2-0.8,2.6-1.6,4.1-2.2c1.5-0.7,3-1.3,4.7-1.8c1.6-0.5,3.3-0.9,5-1.2c1.7-0.3,3.4-0.4,5-0.4
		c3,0,5.7,0.4,8.2,1.1c2.4,0.7,4.5,1.8,6.2,3.4c1.7,1.5,3,3.4,3.9,5.8c0.9,2.3,1.4,5.1,1.4,8.4l-0.1,26.1h5.8v8.7h-15.2V210.2z
		 M818.8,208.6c1.2,0,2.5-0.2,3.7-0.5c1.2-0.3,2.4-0.7,3.5-1.2c1.1-0.5,2.1-1.1,3.1-1.8c0.9-0.7,1.7-1.4,2.4-2.1l0-11.8h-10.9
		c-1.8,0-3.5,0.2-5,0.6c-1.5,0.4-2.8,1-3.9,1.8c-1.1,0.8-1.9,1.7-2.5,2.9c-0.6,1.1-0.9,2.5-0.9,3.9c0,1.4,0.3,2.6,0.8,3.6
		c0.5,1,1.2,1.9,2.1,2.6c0.9,0.7,2,1.2,3.3,1.6C815.8,208.5,817.2,208.6,818.8,208.6"/>
</g>
</svg>
